<?xml version="1.0" encoding="utf-8"?>
<!-- Generator: Adobe Illustrator 23.0.3, SVG Export Plug-In . SVG Version: 6.00 Build 0)  -->
<svg version="1.1" id="Calque_1" xmlns="http://www.w3.org/2000/svg" xmlns:xlink="http://www.w3.org/1999/xlink" x="0px" y="0px"
	 viewBox="0 0 946 948.5" style="enable-background:new 0 0 946 948.5;" xml:space="preserve">
<style type="text/css">
	.bw1{fill:#FFFFFF;}
	.bw2{fill:#1E1E1E;}
	.bw3{opacity:0.3;enable-background:new    ;}
	.bw4{fill:#141414;}
	.bw5{opacity:0.1;fill:#FFFFFF;enable-background:new    ;}
	.bw6{opacity:0.2;enable-background:new    ;}
</style>
<g id="Calque_3">
	<path class="bw1" d="M306.2,184.6c0,0-18.5,28.9-15.7,47.3c0,0,21.5-18.1,29.9-23.6S306.2,184.6,306.2,184.6z"/>
	<path class="bw1" d="M268.7,268.9c0,0,22.3-19.2,29.8-22.2c0,0-14.4,35.7-12.4,39.3s-18.6-11-18.6-11L268.7,268.9z"/>
	<path class="bw2" d="M573.8,241.8c0,0,46-32,86,0s121,41,121,41s-60,53-131,53S573.8,241.8,573.8,241.8z"/>
	<path class="bw3" d="M573.8,241.8c0,0,46-32,86,0s121,41,121,41s-60,53-131,53S573.8,241.8,573.8,241.8z"/>
	<path class="bw4" d="M341.9,69.9c0,0-49,13-31,77c0,0,51.4-0.4,76.2-25.2C363.8,98.3,343.3,74.8,341.9,69.9z"/>
	<path class="bw2" d="M867.8,607.8c0,0-87,11-126-29s-55-78-56-121s-5-53-5-53s73,34,103,17c0,0-54-36-66-57s-30-80-89-84
		c-45-107-156-100-180-108c-12.1-4-38.3-27.5-61.8-51.2c-24.8,24.8-76.2,25.2-76.2,25.2s-10.9,27-4,39s58,87,25,102s-65-6-73-43
		c0,0-28,29-12,66s88,51,116,81s30,117-56,153c0,0,18,15,33,16c0,0-23,10-31,10c0,0,60,16,78-6c0,0,15.1,150-144.9,233
		c0,0,18.9,41,108.9,19c0,0-7,58-70,77c0,0,45,78,181-53c0,0,11,54,3,68c0,0,103-84,109-119l61,39l27-96c0,0,66,13,128-4
		c0,0-34-24-57-62C732.8,666.8,842.8,650.8,867.8,607.8z"/>
	<path class="bw5" d="M573.8,419.9c-64-67-150-138.1-150-138.1s9.4-58.7-13.7-137.8c-7.6-7-15.5-14.6-23.1-22.3
		c-24.8,24.8-76.2,25.2-76.2,25.2s-10.9,27-4,39s58,87,25,102s-65-6-73-43c0,0-28,29-12,66s88,51,116,81s30,117-56,153
		c0,0,18,15,33,16c0,0-23,10-31,10c0,0,56.1,15,76.1-4c0.7-0.6,1.3-1.3,1.9-2c16.8-16.3,31-15,31-15c28,47,2,68,2,68
		c50-8,95.5-65,95.5-65c14.5,4,22.5,86,22.5,86c29-17,36-136,36-136c9,0,62,47,62,47S637.8,486.9,573.8,419.9z"/>
	<path class="bw1" d="M462.4,220.3c0,0,57,19.5,80,69.5l-61-19.5C481.3,270.4,465.4,252.3,462.4,220.3z"/>
	<path class="bw5" d="M633.3,303.9c0,0,37.8,50.8,44,83.5c0,0,32.5,27,92,31.5c0,0-54-27-68-57.5S633.3,303.9,633.3,303.9z"/>
</g>
<g id="Calque_3_-_copie">
	<path class="bw6" d="M701.3,361.4c-14-30.5-68-57.5-68-57.5s7,9.4,15.5,22.8l0,0c23.8,5,38.2,39.2,63.3,58.7s57.2,33.5,57.2,33.5
		S715.3,391.9,701.3,361.4z"/>
	<path class="bw6" d="M712.5,671.5c6.7-1.9,13.5-3.5,20.3-4.7c0,0,110-16,135-59c-34.7,21-156,91.3-182-137.3l0.8,0.3
		c-0.4-4.3-0.7-8.6-0.8-13c-1-43-5-53-5-53s73,34,103,17c0,0-55.8-24.8-72-53.8s-51.8-62-79.8-67.3l1.3,3l-90.2-14l-61.8-19.1
		c0,0-13.7-15-19-49.7c0,0-124.5-47.8-120.5-151.2c0,0-49,13-31,77c0,0-10.2,25.2-4.6,37.7l0,0c5.1,8.7,1.9,12.5,1.9,12.5
		s-13,15-17.6,34.8c0,0,21.5-18.1,29.9-23.6c15.5,27.1,35.2,68.9,11.5,79.6c-16.4,7.5-32.6,6-45.7-1.9c-2-3.6,12.4-39.3,12.4-39.3
		s-21.2,34.9-29.8,22.2c-0.4-0.6-0.8-1.3-1.2-1.9c-4.1-6.8-7-14.3-8.7-22.1c0,0-28,29-12,66s88,51,116,81
		c4.8,5.4,8.7,11.6,11.2,18.4c22.2,46.4,26.3,132.1-67.2,134.6c0,0,18,15,33,16c0,0,8.9,4.2,2.7,7.7s-33.5,2.4-33.5,2.4h0.1h0.1h0.2
		l0.2,0h0.2l0.2,0.1h0.2l0.3,0.1l0.2,0.1l0.3,0.1l0.3,0.1l0.4,0.1l0.2,0.1l0.5,0.1h0.2l0.5,0.1l0.3,0.1l0.5,0.1l0.3,0.1l0.6,0.1
		l0.3,0.1l0.6,0.1l0.3,0.1l0.7,0.1l0.3,0.1l0.7,0.1l0.3,0.1l0.8,0.2h0.3l0.8,0.2l0.3,0l0.9,0.2l0.3,0l0.9,0.2h0.3l1,0.2h0.3l1,0.2
		h0.2l1.1,0.2h0.2l1.2,0.2h0.1l1.3,0.2l0,0c6,0.9,12.1,1.4,18.2,1.6h0.1h1.5h0.2h1.4h1.8c0.4,0,0.9,0,1.3,0h0.3h1.3h0.3l1.3-0.1h0.3
		l1.3-0.1h0.3l1.2-0.1h0.3l1.2-0.1h0.3l1.2-0.1h0.3l1.2-0.2l0.3-0.1l1.2-0.2l0.3-0.1l1.2-0.2l0.3-0.1l1.2-0.3l0.3-0.1l1.2-0.3
		l0.3-0.1c0.4-0.1,0.8-0.2,1.2-0.3l0.2-0.1l1.2-0.4l0.2-0.1c0.4-0.1,0.8-0.3,1.2-0.4h0.1c0.4-0.2,0.8-0.3,1.2-0.5l0,0
		c3.3-1.3,6.4-3.2,9-5.6l0,0c0.3-0.3,0.7-0.6,1-1l0,0c0.3-0.3,0.6-0.7,0.9-1.1c0,0,2,20-3.2,49.4c-11.5,94.4-74.1,186.6-141.7,183.6
		c0,0,18.9,41,108.9,19c0.7,20.3,0.3,82.7-70,77c0,0,45,78,181-53c0,0,11,54,3,68c0,0,103-84,109-119l61,39l27-96c0,0,66,13,128-4
		C753.5,726.8,712.5,671.5,712.5,671.5z M419.9,617.8c0,0,26-21-2-68l36-15C453.9,534.8,452.4,600.8,419.9,617.8z M537.8,638.8
		c0,0,30.6-97.5,17-131.5s19-4.5,19-4.5S566.8,621.8,537.8,638.8z M635.8,549.8c-41-87.5-173.5-235.1-173.5-235.2
		c30.8,26.9,74.8,66.7,111.5,105.2C637.8,486.9,635.8,549.8,635.8,549.8z"/>
	<path class="bw6" d="M508.4,252.4c12.3,11.5,23.7,24.1,34,37.5c-23-50-80-69.5-80-69.5c0,0.2,0,0.5,0.1,0.7
		C463.9,221.7,487.7,232.8,508.4,252.4z"/>
</g>
</svg>
