<?xml version="1.0" encoding="utf-8"?>
<!-- Generator: Adobe Illustrator 23.0.3, SVG Export Plug-In . SVG Version: 6.00 Build 0)  -->
<svg version="1.1" xmlns="http://www.w3.org/2000/svg" xmlns:xlink="http://www.w3.org/1999/xlink" x="0px" y="0px"
	 viewBox="0 0 948.5 948.5" style="enable-background:new 0 0 948.5 948.5;" xml:space="preserve">
<style type="text/css">
	.dicta1{fill:#F9E6CC;}
	.dicta2{opacity:0.1;fill:#804B3C;}
	.dicta3{fill:#614F43;}
	.dicta4{opacity:0.5;fill:#D5988C;}
	.dicta5{fill:#7C6965;}
	.dicta6{opacity:0.1;}
	.dicta7{fill:#2B3D18;}
	.dicta8{fill:#FFFFFF;}
	.dicta9{fill:#1D1D1B;}
	.dicta10{opacity:0.9;fill:#FFFFFF;}
</style>
<g id="Calque_4">
	<g id="J5_1_">
		<path id="J5" class="dicta1" d="M508.4,209.7c-102.6,0-186.6,84-186.6,186.6v255.3c0,76.2,103,142.2,155.9,171H539
			c52.9-28.9,155.9-94.8,155.9-171V396.3C694.9,293.7,611,209.7,508.4,209.7z"/>
		<path class="dicta2" d="M508.4,209.7c-102.6,0-186.6,84-186.6,186.6v255.3c0,76.2,103,142.2,155.9,171h30.7V209.7z"/>
	</g>
	<g id="E1">
		<circle class="dicta3" cx="576.2" cy="462.2" r="28.3"/>
		<circle class="dicta3" cx="441.9" cy="462.2" r="28.3"/>
	</g>
	<g id="N3">
		<path class="dicta4" d="M507.9,433L482,556.3c-3.5,16.4,9.1,31.9,25.9,31.9h0h0c16.8,0,29.4-15.5,25.9-31.9L507.9,433z"/>
	</g>
</g>
<g id="Calque_7">
	<path class="dicta5" d="M644.6,268v382.1c0,0-23.5-61.6-136.6-61.6v-0.1c-113.2,0-136.7,61.6-136.7,61.6V268.7
		c-31,33.4-50.1,78.2-50.1,127.1V652c0,76.5,103.3,142.6,156.4,171.6h30.3v0.1h31c53.1-29,156.4-95.1,156.4-171.6V395.9
		C695.3,346.6,676,301.6,644.6,268z M553.3,730.4c-15-3-17.5-20-45.3-20.1v-0.1c-27.9,0-30.3,17.1-45.4,20.1
		c-15.1,3-59.1,3-59.1-51.2c0-53.6,102.1-36.5,104.4-36.1v0.1c0,0,104.5-18.1,104.5,36.1C612.4,733.4,568.3,733.4,553.3,730.4z"/>
	<path class="dicta6" d="M507.9,823.7V710.3h0v-0.1c-27.9,0-30.3,17.1-45.4,20.1c-15.1,3-59.1,3-59.1-51.2
		c0-53.6,102.1-36.5,104.4-36.1v0.1c0,0,0,0,0.1,0v-54.6h0v-0.1c-113.2,0-136.7,61.6-136.7,61.6V268.7
		c-31,33.4-50.1,78.2-50.1,127.1V652c0,76.5,103.3,142.6,156.4,171.6L507.9,823.7L507.9,823.7L507.9,823.7z"/>
</g>
<g id="Chapeau">
	<path class="dicta7" d="M690.7,330.1c3.3-52.2,59.5-93.4-29-174.4s-204,25.5-261,54s-168,103.2-163.5,156.6s13.7,78,51,77.4
		c37.9-0.6,31.5-42.4,33.5-44.1c41.4-35.2,236.2-69,236.2-69L690.7,330.1z"/>
	<path class="dicta6" d="M508.4,146.7c-42.7,20.3-81.3,49.9-107.6,63c-57,28.5-168,103.2-163.5,156.6c4.5,53.4,13.7,78,51,77.4
		c37.9-0.6,31.5-42.4,33.5-44.1c28-23.7,125.9-46.9,186.5-59.4V146.7z"/>
	<path class="dicta6" d="M477.4,197.3c-51.6,80.3-246.5,122.3-236.6,197.6c0.3,1.7,0.6,3.4,1,5.1c0.5,2.2,1,4.4,1.5,6.5
		c6.6,25.7,18.9,37.7,45.1,37.3c37.9-0.6,31.5-42.4,33.5-44.1c41.4-35.2,236.2-69,236.2-69l132.7-0.5c2.6-40.6,37.2-74.6,10.7-125.9
		C671.2,149.2,530,115.3,477.4,197.3z"/>
	<ellipse class="dicta8" cx="588.9" cy="234" rx="45.2" ry="67.4"/>
	<polygon points="604.2,198.2 593.3,187.2 582.4,198.1 571.6,187.2 560.7,198.2 571.5,209 560.7,219.8 571.6,230.8 582.4,219.9 
		593.3,230.8 604.2,219.8 593.4,209 	"/>
	<polygon points="617.1,248.1 606.1,237.2 595.3,248 584.5,237.2 573.5,248.1 584.4,258.9 573.5,269.8 584.5,280.7 595.3,269.9 
		606.1,280.7 617.1,269.8 606.2,258.9 	"/>
	<path class="dicta9" d="M321.8,399.6c0,0,117.2-99,389.6-70C711.4,329.6,439,358.6,321.8,399.6z"/>
	<path class="dicta10" d="M573.5,334l-4.9,0.3c-1.6,0.1-3.2,0.3-4.8,0.4l-4.8,0.5l-4.7,0.5c-3.2,0.3-6.3,0.7-9.4,1.1
		c-3.1,0.4-6.3,0.8-9.4,1.2c-6.3,0.8-12.5,1.7-18.8,2.6l-12.7,1.9c9.2-1.6,18.4-3,27.6-4.5c12.1-1.9,24.2-3.7,36.4-5.3l-0.5-4.9
		c0,0,0,0-0.1,0v0c0,0,0,0,0,0c-10.6,1.1-21.1,2.3-31.6,3.7c-10.5,1.3-21.1,2.7-31.6,4.3c-10.5,1.6-21,3.3-31.5,5.4
		c-5.2,1.1-10.4,2.1-15.6,3.4c-1.9,0.5-3.8,1-5.7,1.5c-3.8,0.9-7.7,1.9-11.5,3l-4.5,1.4c-1.5,0.5-3,1-4.5,1.5
		c-1.5,0.6-3,1.1-4.5,1.8c-1.5,0.6-3,1.4-4.5,2.2l-18.1,9.7l20.5-3.4l37.3-6.2c8.9-1.5,17.9-2.9,26.8-4.4c-14,3-28,6.1-42,9.1
		l-21.1,4.7l-21,4.8l21.3-3.6l21.2-3.7c14.1-2.5,28.3-5,42.4-7.6c14.1-2.6,28.3-5.1,42.4-7.7l42.4-7.9L573.5,334z"/>
</g>
</svg>
