<?xml version="1.0" encoding="utf-8"?>
<!-- Generator: Adobe Illustrator 23.0.3, SVG Export Plug-In . SVG Version: 6.00 Build 0)  -->
<svg version="1.1" xmlns="http://www.w3.org/2000/svg" xmlns:xlink="http://www.w3.org/1999/xlink" x="0px" y="0px"
	 viewBox="0 0 948.5 948.5" style="enable-background:new 0 0 948.5 948.5;" xml:space="preserve">
<style type="text/css">
	.gdigger1{fill:#D9CEC5;}
	.gdigger2{fill:#40332C;}
	.gdigger3{opacity:0.5;fill:#D5988C;}
	.gdigger4{opacity:0.1;}
	.gdigger5{opacity:0.1;fill:#5E4A3E;}
	.gdigger6{fill:#26201F;}
	.gdigger7{fill:#8A8F9E;}
	.gdigger8{fill:#474034;}
	.gdigger9{fill:#22292B;}
</style>
<g id="Calque_4">
	<path class="gdigger1" d="M505.7,218.8c-31.2-25.2-70.9-40.4-113.9-40.4c-43,0-82.7,15.2-113.9,40.4l-50.7,193.8v192l80,39
		c0,0,4-31,8-52s34-14,76.2-14h0.9c42.2,0,72.2-7,76.2,14s8,52,8,52l80-39v-192L505.7,218.8z"/>
	<circle class="gdigger2" cx="325.6" cy="424.5" r="27.5"/>
	<circle class="gdigger2" cx="456.5" cy="424.5" r="27.5"/>
	<polygon class="gdigger3" points="392.2,396.1 423.9,547.4 392.2,547.4 360.4,547.4 	"/>
	<polygon class="gdigger4" points="392.2,396.1 360.4,547.4 392.2,547.4 	"/>
	<path class="gdigger5" d="M193.4,278.7c0,0,4-80,53-73.3c10.3-35.8,39.3-68.7,56-82.7c0,0-20,33-20,48c0,0,93-73,182-28
		c-56-9-70-4-96,16s15.1,32,15.1,32s67.9-39,125.9-5c0,0-65.9-4-85.5,21c0,0,85.1-4.1,100.8,29.9c15.7,34.1,0,93.1,0,93.1
		s-3-72.9-40.6-79c-37.7-6-38.7,16-75.7,21c0,0,35,84,25,95s-42.2,34-42.2,34v375.2h-29.4c-51.6-28.1-152-92.4-152-166.7V360.3
		c0-31.2,8-60.7,22-86.4C217,262.4,193.4,278.7,193.4,278.7z"/>
	<path class="gdigger6" d="M559.8,291c-1.7-42-7.9-93.9-27.4-117.4c-34-41-151-15-151-15c12-11,83-16,83-16c-56-9-70-4-96,16
		s15.1,32,15.1,32s67.9-39,125.9-5c0,0-65.9-4-85.5,21c0,0,85.1-4.1,100.8,29.9c15.7,34.1,0,93.1,0,93.1s-3-72.9-40.6-79
		c-0.8-0.1-1.5-0.2-2.3-0.3c27.1,15.9,43.7,150.3,43.7,150.3c7.8-25.8,8.7-54.8,7.3-78.4l23.7,90.4v192l-80,39c0,0-4-31-8-52
		s-34-14-76.2-14h-0.9c0,0-0.1,0-0.1,0v198.3h1h29.5c51.6-28.1,152-92.4,152-166.7V360.3C573.6,335.8,568.7,312.4,559.8,291z"/>
	<path class="gdigger6" d="M315.1,591.7c-4,21-8,52-8,52l-80-39v-192l40.6-154.9l0,0c14.2-25.9,82.8,15.9,124.1,15.9
		c6.4,0,12-0.4,17.1-1.1c-0.3-0.6-0.4-0.9-0.4-0.9c32.7-4.4,37.3-22.1,63.8-22c0.6-0.2,1.2-0.3,1.8-0.5c2.6-0.7,5.2-0.2,7.7,1.2
		c0.8,0.1,1.5,0.2,2.3,0.3c37.7,6,40.6,79,40.6,79s15.7-59,0-93.1c-15.7-34.1-100.8-29.9-100.8-29.9c19.5-25,85.5-21,85.5-21
		c-58-34-125.9,5-125.9,5s-41.1-12-15.1-32s40-25,96-16c-89-45-182,28-182,28c0-15,20-48,20-48c-16.8,14-45.7,46.9-56,82.7
		c-49-6.7-53,73.3-53,73.3s23.6-16.3,38.5-4.8c-14,25.7-22,55.2-22,86.4v248.9c0,74.3,100.4,138.6,152,166.7h29.4V577.7
		C349,577.6,319.1,570.7,315.1,591.7z"/>
	<path class="gdigger4" d="M315.1,591.7c-4,21-8,52-8,52l-80-39v-192l40.6-154.9l0,0c14.2-25.9,82.8,15.9,124.1,15.9
		c6.4,0,12-0.4,17.1-1.1c-0.3-0.6-0.4-0.9-0.4-0.9c32.7-4.4,37.3-22.1,63.8-22c0.6-0.2,1.2-0.3,1.8-0.5c2.6-0.7,5.2-0.2,7.7,1.2
		c0.8,0.1,1.5,0.2,2.3,0.3c37.7,6,40.6,79,40.6,79s15.7-59,0-93.1c-15.7-34.1-100.8-29.9-100.8-29.9c19.5-25,85.5-21,85.5-21
		c-58-34-125.9,5-125.9,5s-41.1-12-15.1-32s40-25,96-16c-89-45-182,28-182,28c0-15,20-48,20-48c-16.8,14-45.7,46.9-56,82.7
		c-49-6.7-53,73.3-53,73.3s23.6-16.3,38.5-4.8c-14,25.7-22,55.2-22,86.4v248.9c0,74.3,100.4,138.6,152,166.7h29.4V577.7
		C349,577.6,319.1,570.7,315.1,591.7z"/>
	<path class="gdigger1" d="M392.2,718.7c-35.8,0-51.2-32-51.2-46s-11-27-7-54s37-10,58.2-10s54.2-17,58.2,10s-7,40-7,54
		S427.9,718.7,392.2,718.7z"/>
</g>
<g id="Calque_4_-_copie">
</g>
<g id="Calque_5">
	<path class="gdigger1" d="M599.6,623.4h-6.1c-6.6,0-12-5.4-12-12v-63.8c0-6.6,5.4-12,12-12h6.1c6.6,0,12,5.4,12,12v63.8
		C611.6,618,606.2,623.4,599.6,623.4z"/>
	<path class="gdigger5" d="M676.1,678.7h-67c-13.5,0-24.5-11-24.5-24.5v-98c0-13.5,11-24.5,24.5-24.5h67c13.5,0,24.5,11,24.5,24.5v98
		C700.6,667.6,689.6,678.7,676.1,678.7z"/>
	<path class="gdigger7" d="M763.4,470.6H521.8c-9.5,0-17.2-7.7-17.2-17.2v-186c0-76.2,61.8-138,138-138h0c76.2,0,138,61.8,138,138v186
		C780.7,462.9,772.9,470.6,763.4,470.6z"/>
	<path class="gdigger4" d="M642.6,129.3L642.6,129.3l0,341.3h120.8c9.5,0,17.2-7.7,17.2-17.2v-186C780.7,191.1,718.9,129.3,642.6,129.3z"
		/>
	<rect x="618" y="395.7" class="gdigger8" width="49.3" height="552.8"/>
	<path class="gdigger7" d="M669.8,478.7h-54.3c-2.1,0-3.9-3.8-3.9-8.4v-90.4c0-37.1,31-67.1,31-67.1h0c0,0,31,30,31,67.1v90.4
		C673.7,474.9,671.9,478.7,669.8,478.7z"/>
	<path class="gdigger4" d="M642.6,312.7c0,0-31,30-31,67.1v90.4c0,4.6,1.7,8.4,3.9,8.4h27.2L642.6,312.7L642.6,312.7z"/>
	<path class="gdigger1" d="M682.1,678.7h-67c-13.5,0-24.5-11-24.5-24.5v-98c0-13.5,11-24.5,24.5-24.5h67c13.5,0,24.5,11,24.5,24.5v98
		C706.6,667.6,695.6,678.7,682.1,678.7z"/>
	<path class="gdigger9" d="M682.1,531.5h-54.2c11.2,19.2,20.6,44.1,20.6,73.7c0,26.3-7.4,51.8-16.9,73.7h50.5c13.5,0,24.6-11.1,24.6-24.6
		V556C706.7,542.5,695.6,531.5,682.1,531.5z"/>
</g>
</svg>
