<?xml version="1.0" encoding="utf-8"?>
<!-- Generator: Adobe Illustrator 23.0.3, SVG Export Plug-In . SVG Version: 6.00 Build 0)  -->
<svg version="1.1" xmlns="http://www.w3.org/2000/svg" xmlns:xlink="http://www.w3.org/1999/xlink" x="0px" y="0px"
	 viewBox="0 0 948.5 948.5" style="enable-background:new 0 0 948.5 948.5;" xml:space="preserve">
<style type="text/css">
	.menta1{fill:#F9E6CC;}
	.menta2{opacity:0.1;fill:#804B3C;}
	.menta3{fill:#614F43;}
	.menta4{opacity:0.5;fill:#D5988C;}
	.menta5{fill:#1F1915;}
	.menta6{opacity:0.2;fill:#804B3C;}
	.menta7{opacity:0.1;}
	.menta8{opacity:0.5;fill:#EBBDFF;}
	.menta9{fill:#F9EBFF;}
</style>
<g id="Calque_9">
	<path class="menta1" d="M628.7,206.4c-30.4-21.7-67.5-34.6-107.5-34.6h0c-0.1,0-0.1,0-0.2,0c-0.1,0-0.1,0-0.2,0h0
		c-40,0-77.1,12.8-107.5,34.6c-43.8,31.1-73.6,80.8-77.6,137.4v13.5v16.8v120.2v56.7v67.5c7.5,71.6,103.4,132.8,153.7,160.3h2.3
		h58.4h2.3c50.3-27.4,146.2-88.6,153.7-160.3v-67.5v-56.7V374.1v-16.8v-13.5C702.3,287.2,672.5,237.5,628.7,206.4z"/>
	<path class="menta2" d="M520.9,171.9c-39.9,0-77,12.8-107.4,34.5c-43.8,31.1-73.6,80.8-77.6,137.4v13.5v16.8v120.2v56.7v67.5
		c7.5,71.6,103.4,132.8,153.7,160.3h2.3h28.9V171.9z"/>
	<path class="menta3" d="M558,372.3c22.1-55.5,58.5-75.7,79.5-53.9c0,0-11-33.2-57.3-6C533.8,339.6,558,372.3,558,372.3z"/>
	<path class="menta3" d="M486.5,372.3c-22.1-55.5-58.5-75.7-79.5-53.9c0,0,11-33.2,57.3-6S486.5,372.3,486.5,372.3z"/>
	<path class="menta4" d="M520.9,405L520.9,405c-16.1,0-29.3,13.2-29.3,29.3v82.1c0,16.1,13.2,29.3,29.3,29.3h0
		c16.1,0,29.3-13.2,29.3-29.3v-82.1C550.1,418.1,537,405,520.9,405z"/>
	<g>
		<path class="menta5" d="M461.3,407c-10,0-18.9-3.1-25.3-8.1c1.9,12.2,12.5,21.6,25.3,21.6c12.8,0,23.3-9.3,25.3-21.6
			C480.2,403.9,471.2,407,461.3,407z"/>
		<path class="menta5" d="M583.3,407c10,0,18.9-3.1,25.3-8.1c-1.9,12.2-12.5,21.6-25.3,21.6c-12.8,0-23.3-9.3-25.3-21.6
			C564.3,403.9,573.3,407,583.3,407z"/>
	</g>
</g>
<g id="Calque_7">
	<path class="menta6" d="M886.8,369.9l-55.8-55.8c-9.2-9.2-23.6-10.1-33.9-2.8L690.9,205c-10.3-10.3-26.9-10.3-37.1,0h0
		c-10.3,10.3-10.3,26.9,0,37.1l-6.9-6.9c-10.3-10.3-26.9-10.3-37.1,0l0,0c-10.3,10.3-10.3,26.9,0,37.1l55.8,55.8
		c-4.3,1.2-8.4,3.4-11.8,6.8v0c-10.3,10.3-10.3,26.9,0,37.1l0,0h0c-10.3,10.3-10.3,26.9,0,37.1l77.9,77.9l0,0l9.4,9.4
		c13.7,13.7,35.8,13.7,49.5,0L863,424c0.6-0.6,1.2-1.3,1.8-1.9l0.1,0.1h0C885.4,401.7,907.3,390.4,886.8,369.9z"/>
	<path class="menta1" d="M842.1,314.1c-9.2-9.2-23.6-10.1-33.9-2.8L701.9,205c-10.3-10.3-26.9-10.3-37.1,0l0,0
		c-10.3,10.3-10.3,26.9,0,37.1l-6.9-6.9c-10.3-10.3-26.9-10.3-37.1,0l0,0c-10.3,10.3-10.3,26.9,0,37.1l55.8,55.8
		c-4.3,1.2-8.4,3.4-11.8,6.8v0c-10.3,10.3-10.3,26.9,0,37.1l0,0h0c-10.3,10.3-10.3,26.9,0,37.1l77.9,77.9l9.4,9.4
		c13.7,13.7,35.8,13.7,49.5,0L874,424c0.6-0.6,1.2-1.3,1.8-1.9l0.1,0.1c20.5-20.5,20.5-53.7,0-74.2L842.1,314.1z"/>
	<path class="menta1" d="M422.8,561.3c-9.3-9.6-24.3-10.3-34.8-2.6c-3.1,2.3-6.2,4.5-9.6,6.5l-37.7,22.5c-6.2,3.7-14.3,1.8-18.2-4.3
		l-4.2-6.6c0-7.2,0.8-14.4,2.5-21.4l30.6-131.9c3.3-14.3-5.6-29.1-20-32.2c-14-3-27.8,5.8-31,19.7l-27,116.4
		c-0.1,0.5-0.9,0.4-0.9-0.1V384.8c0-14.5-11.8-26.2-26.2-26.2h0c-14.5,0-26.2,11.8-26.2,26.2v143.5c0,0.5-0.7,0.6-0.8,0.1
		l-40.8-119.4c-4.6-13.5-19.2-21.3-32.8-17.1c-14.2,4.4-21.8,19.6-17,33.6l33.8,98.8c0.3,0.9-0.8,1.5-1.4,0.9l-55.3-58.6
		c-10-10.5-26.6-11-37.1-1.1v0c-10.5,10-11,26.6-1.1,37.1l78.1,82.8c1.4,1.5,2.2,3.5,2.2,5.6v34.6c0,42.4,34.3,76.7,76.7,76.7
		l44.8,0c31.5,0,61.7-12.5,83.9-34.8l69.3-69.3C432.6,588,432.7,571.6,422.8,561.3z"/>
	<path class="menta7" d="M657.8,235.2c-0.1-0.1-0.3-0.3-0.4-0.4c2.4,2.4,4.9,4.8,7.4,7.4L657.8,235.2z"/>
	<path class="menta2" d="M670,353.7c-10.4-10.4-7.3-16.3-5.8-18.1c-9.7,10.3-9.5,26.5,0.6,36.5l0,0h0c-10.3,10.3-10.3,26.9,0,37.1
		l77.9,77.9l9.4,9.4c13.7,13.7,35.8,13.7,49.5,0l37.2-37.2c0,0,0,0,0,0C793.4,504.7,682.7,366.3,670,353.7z"/>
	<path class="menta2" d="M752.1,310.3c0,0-58.6-67.5-74.4-83.3S664.8,205,664.8,205c-10.3,10.3-10.3,26.9,0,37.1
		C744.6,322,752.1,310.3,752.1,310.3z"/>
	<path class="menta2" d="M649,280.7c-35.7-35.7-28.3-45.4-28.3-45.4c-10.3,10.3-10.3,26.9,0,37.1l55.8,55.8l39.1,25.5
		C715.7,353.7,684.7,316.3,649,280.7z"/>
	<path class="menta2" d="M808.2,311.3l64.7,64.7c0,0-54.1-61.2-41.9-68.5C831,307.5,819.4,303.4,808.2,311.3z"/>
</g>
<g id="Calque_8_-_copie">
	<circle class="menta8" cx="280.7" cy="318.7" r="35"/>
	<circle class="menta8" cx="187.9" cy="313.3" r="23.7"/>
	<circle class="menta8" cx="235.6" cy="171.9" r="17.6"/>
	<circle class="menta8" cx="111.7" cy="263.9" r="17.6"/>
	<path class="menta8" d="M428.2,556.1c-11.6-12.1-30.8-13.6-44.6-3.4c-2.8,2.1-5.9,4.3-9,6.1l-37.7,22.5c-2.8,1.7-6.3,0.8-8-1.9l-3-4.7
		c0.1-5.9,0.9-11.8,2.2-17.6l30.6-131.9c1.4-5.8,1.1-11.9-0.6-17.6c12.8-5.2,21.9-17.8,21.9-32.5c0-19.3-15.7-35-35-35
		c-19.3,0-35,15.7-35,35c0,3.9,0.7,7.7,1.9,11.3c-9.2,4.2-16.4,12.5-18.8,23L280,465.8v-81c0-18.6-15.1-33.8-33.8-33.8
		s-33.8,15.1-33.8,33.8V436c-5.5,0.7-10.6,2.8-15,5.8L187,411.1c2.1-3.6,3.4-7.7,3.4-12.2c0-13.1-10.6-23.7-23.7-23.7
		c-0.9,0-1.7,0.1-2.6,0.1c-1-12.2-11.2-21.7-23.6-21.7c-13.1,0-23.7,10.6-23.7,23.7c0,7.9,3.9,14.9,9.8,19.2
		c-1.2,1.6-2.3,3.4-3.3,5.2c-4.2,8.2-4.8,17.5-1.8,26.2l23.9,69.8L111,461.4c-1.2-1.3-2.5-2.4-3.8-3.5c0-0.6,0-1.2,0-1.7
		c0-19.3-15.7-35-35-35s-35,15.7-35,35c0,12.1,6.2,22.8,15.5,29.1c0.2,8.4,3.4,16.3,9.2,22.5l52.7,55.8c-4.2,5.8-6.6,12.8-6.6,20.5
		c0,18.4,14.2,33.5,32.2,34.9v6.6c0,46.4,37.8,84.2,84.2,84.2l44.8,0c33.7,0,65.4-13.1,89.2-37l69.3-69.3
		C440.7,590.5,440.9,569.3,428.2,556.1z"/>
	<circle class="menta8" cx="378.4" cy="494.4" r="23.7"/>
</g>
<g id="Calque_6">
	<ellipse class="menta9" cx="245.7" cy="445.2" rx="18.9" ry="79.5"/>
	<ellipse transform="matrix(0.9411 -0.338 0.338 0.9411 -147.0347 84.5889)" class="menta9" cx="169.4" cy="464.5" rx="18.9" ry="68"/>
	
		<ellipse transform="matrix(0.2389 -0.971 0.971 0.2389 -217.4999 663.8549)" class="menta9" cx="314.8" cy="470.7" rx="68" ry="18.9"/>
	
		<ellipse transform="matrix(0.7834 -0.6215 0.6215 0.7834 -291.016 365.1219)" class="menta9" cx="378.4" cy="600.1" rx="51.3" ry="26.7"/>
	
		<ellipse transform="matrix(0.7071 -0.7071 0.7071 0.7071 -331.4461 234.9951)" class="menta9" cx="117.9" cy="517.6" rx="18.9" ry="61.4"/>
	<path class="menta9" d="M166.7,605.2c-8-30.5,3.5-63,30-65.5s104,2,110,20s-67.3,48.5-79.9,62.5S172.7,628.2,166.7,605.2z"/>
	<path class="menta9" d="M320.2,598.9c-8.2-15.1-24.5-16.5-49,2.5s-70.3,59.2-36.8,80c33.5,20.8,85.8,4,96.5-9.2
		S326.7,610.9,320.2,598.9z"/>
</g>
</svg>
