<?xml version="1.0" encoding="utf-8"?>
<!-- Generator: Adobe Illustrator 23.0.3, SVG Export Plug-In . SVG Version: 6.00 Build 0)  -->
<svg version="1.1" id="Calque_1" xmlns="http://www.w3.org/2000/svg" xmlns:xlink="http://www.w3.org/1999/xlink" x="0px" y="0px"
	 viewBox="0 0 948.5 948.5" style="enable-background:new 0 0 948.5 948.5;" xml:space="preserve">
<style type="text/css">
	.necro1{fill:#2E2927;}
	.necro2{fill:#DED4CE;}
	.necro3{opacity:0.5;fill:#191F16;enable-background:new    ;}
	.necro4{fill:#F5DCCB;}
	.necro5{fill:#DFC8B9;}
	.necro6{opacity:5.000000e-02;enable-background:new    ;}
	.necro7{fill:none;}
	.necro8{fill:#1D1D1B;}
	.necro9{opacity:0.9;fill:#1D1D1B;enable-background:new    ;}
	.necro10{opacity:0.9;fill:#2D2D2B;enable-background:new    ;}
	.necro11{fill:#EDD5C5;}
	.necro12{opacity:0.1;fill:#1D1D1B;enable-background:new    ;}
	.necro13{fill:#FFF4ED;}
	.necro14{fill:#423B38;}
</style>
<title>necromencer</title>
<g id="Livre2">
	<polygon class="necro1" points="299.3,874.6 161.8,687 606.3,609.7 631.3,791.7 	"/>
	<polygon class="necro2" points="310,855.3 180.4,676.5 612.8,596.8 629.5,778.6 	"/>
</g>
<g id="Fummée2">
	<path class="necro3" d="M410.4,125.9c0,0,36,29,15,48s-70-31-93,0s81.1,30,72.6,83s-68.6-19.4-100.6,31.3s-114.7-21.5-136.8,7.1
		s25.9,79.1,32.4,103.4s-121.5-2.4-79.5,78.9s128,86.9,65,116.6s-140-60.7-146,0s54,162.7-6,162.2c0,0,50,11,70-14.2
		s-17.7-50.3,43.1-58.3s-30.6,103.5,33.9,110s20.3,67.8,65.2,61.4s64.5,0,64.5,0s394.4-86.6,410.4-147.4s125.9-41,112.9-134
		s-84-176,9-144s41-102.9-13-97.5s-113-24.2-28-49.9s38-76.7-40-64.7c0,0,41,15.2,17,31.6s-123,5.2-130,45.8s47,44.8,52,75.7
		s-96,33.9-117-13.1s-27-141-92-114s-48.8-38-34.4-46S481.4,137.9,410.4,125.9z"/>
</g>
<g id="Crâne">
	<g id="Calque_5">
		<path class="necro4" d="M244.2,65.5c0,0-49.9,25.6-37,77.6c4.1,24.9,30.4,34.1,38.4,63.2c0,0-10.1,18.1,15.9,23.4s51-15.6,45.7-24.5
			s-17.5-44.4-44.5-53.1c-15-4.8-24.4-12.8-29-37.6C229,88.8,244.2,65.5,244.2,65.5z"/>
		<path class="necro5" d="M235.6,228c-10-21.3,7.3-33.1,22.3-24.8C273,211.4,235.6,228,235.6,228z"/>
		<path class="necro6" d="M290.6,222.5c-5.9-6.8-21.6-35.4-46-38.8c-13.6-1.9-22.8-7.3-30.4-27.9c-7.9-21.4,1.6-43.6,1.6-43.6
			s-38.9,29.4-20.1,72c6.8,19.4,28.2,24.1,40.1,44.1c-7.5,3.4-11.1,12.9-3.1,24.3c0,0,4.1-2.8,8.6-6.5c2.6,2.2,6.9,3.9,13.9,4.1
			C278.2,251,296.5,229.3,290.6,222.5z"/>
	</g>
	<g id="Calque_3">
		<path class="necro5" d="M200.4,283c-6.9,25.5-47.4,6.1-57.4,16.5s-15.5,21.8-6.9,39.7s39.8,57.6,58.7,49.6s53.7-17.7,62.7,13.2
			s3.7,50.2,67.6,52s105.8-126.4,79.2-175s-34-44.1-34-44.1s6.2-26.6-65.5-39.5c-52.1-9.1-50.7,18.4-50.7,18.4
			S216.8,222.4,200.4,283z"/>
		<path d="M240.2,237c11.6,12.2,11.2,37.9,2,57s-19.6,27.2-37.9,31.4c8.4,1.8,40.2,4.1,54.3-33.2C272.7,254.9,240.2,237,240.2,237z"
			/>
		<path class="necro7" d="M242.7,244.9c0-0.1,0-0.1,0-0.2C242.7,244.8,242.7,244.8,242.7,244.9z"/>
		<path class="necro8" d="M242.7,244.7c-0.3-1.5-0.8-2.9-1.5-4.2C241.6,241.9,242.1,243.3,242.7,244.7z"/>
		<path class="necro9" d="M240.2,237c0,0,0.4,1.7,1,3.5c0.7,1.3,1.2,2.8,1.5,4.2c0,0.1,0,0.1,0,0.2c2.9,13.6-13.8,66.1-40.4,78.6
			c0.3,0.9,1.1,1.6,2.1,1.8c18.2-4.1,28.7-12.2,37.9-31.4S251.8,249.2,240.2,237z"/>
		<path class="necro10" d="M242.7,244.9c-0.1,2.5-13.2,18.7-22.9,32c-8.8,12.1-20.7,39.2-17.5,46.6C228.9,311,245.6,258.5,242.7,244.9z
			"/>
		<path class="necro4" d="M179.3,381.1c-0.6-3.5-5.3-6.9-10-7.2c0.9-4.2-5-10-10.9-9.9l0,0c2.1-2,3.6-3.8,3.5-5
			c-0.3-4.1-7.5-9.4-13.7-8.4l0,0c2.1-3.7,2-7.1-1.8-11c-2.4-2.5-6.1-1.3-9.4,1.2c4.4-5,5.5-9.3,0.6-14.3
			c-6.1-6.2-20.2,10.2-15.8,15.5c4,4.8,6.3,7.1,11.3,2.8c-2.8,3.7-4.4,8-2.5,10.3c4.2,5.1,6.5,7.4,12.2,2
			c-2.7,6.5-3.9,15.8-1.8,16.6c1.5,0.6,6.3-1.7,10.9-4.8l0,0c-4.8,4.9-2.8,8.3,0.7,10s5.3,5.5,6.3,6.4c0.1,0.1,0.3,0.1,0.5,0
			c0.1,2.4,2,3.8,4.3,4.5c3.7,1.1,6.1,4.5,7.2,5.2c0.2,0.1,0.6,0,1-0.4c0.9,1.5,2.5,2.5,4.2,2.7c3.8,0.8,6.4,4.1,7.6,4.6
			s6.5-8.3,7.3-12.8C191.8,384.9,185.1,380.4,179.3,381.1z"/>
		<path class="necro4" d="M337,37.2c0,0-67,9.3-73.1,73.7c-5.2,30,21.1,51,18.5,87.3c0,0-18.7,16.6,8.8,33.1s64.4,2.5,61.8-9.6
			s-2.2-57.6-29.5-78.3c-15.2-11.5-22.7-24.3-18-54.4C310.3,57.6,337,37.2,337,37.2z"/>
		<path class="necro11" d="M121.3,448c-5.3,6.4,14.4,67.4,14.4,67.4s5.6-36.4,29-34.3s83.8,37.6,83.8,37.6s7-87.2,76.8-98.7
			c0,0-57.4-19.4-55.6-40.9c0,0-38.5,64.3-91.7,65.6S121.3,448,121.3,448z"/>
		<path class="necro4" d="M191.2,436.5c-1-6.8-4.9-7.3-8.4-5.6c-2.1,0.9-4.4,1.2-6.7,1c-1.7-1.8-4.1-1.6-6.3-0.5
			c-2,0.9-4.1,1.2-6.2,1.1c-1.7-2.1-4.2-1.9-6.6-0.8c-2.2,0.9-4.5,1.3-6.9,1c-2.1-4.8-5-8.7-6.5-8.3c-1.1,0.3-2.7,2.8-4.1,6.1
			c-1.2-1.9-2.6-3.1-4.3-3.1c-4.3,0-7.2,0.1-8.6,2.5c-5.7,0.1-8.3,1.1-7.6,9.1c0.9,8.7,3,13.7,11.1,13c1.6-0.1,3-1.1,3.7-2.5
			c0.9,0.1,1.8,0.1,2.8,0.1c3.1,2.2,10,1.9,14.2-1.4c2.4,2.6,8.5,2.2,12.5-0.7c2.2,3.2,8.9,2.8,13.1-0.5c2.6,3.6,11,2.5,14.7-2.3
			C191.2,444.7,192.2,443.4,191.2,436.5z"/>
	</g>
</g>
<g id="Ombre">
	<path id="_2" class="necro12" d="M404.3,278.8c-26.5-48.6-34-44.1-34-44.1s3-12.7-18.9-24.8c-2.1-18.6-6.5-50.4-28-66.7
		c-15.2-11.5-22.7-24.3-18-54.4c4.9-31.3,31.5-51.7,31.5-51.7c-31.7,17.3-67,38.1-63.3,118.8l0,0c0.3,0.7,0.6,1.4,0.8,2
		c-3.6-2.6-7.5-4.6-11.7-5.9c-8-2.6-14.4-6-19.3-12.4c-1.5-2-2.9-4.2-4-6.5c-0.2-0.5-0.5-1-0.7-1.5c-1.2-2.8-2.3-5.7-3.1-8.7
		c-0.7-2.6-1.4-5.4-1.9-8.6c-0.7-3.9-1-7.9-0.9-11.8c0.1-3,0.4-5.9,0.8-8.9c0.2-1.4,0.5-2.8,0.8-4.2c1.6-7,4.1-13.8,7.4-20.2
		c0.2-0.3,0.3-0.6,0.5-0.9c1.1-2,1.8-3.1,1.8-3.1l0,0c-21.6,23-36.1,48.3-29.5,95.2l0.5,0.8l0.7,1l0.6,0.7c0.2,0.3,0.5,0.6,0.8,1
		l0.6,0.7l0.8,1l0.6,0.7c0.3,0.4,0.6,0.7,0.9,1l0.5,0.6l1,1.2l0.4,0.4c1.1,1.3,2.3,2.6,3.5,3.9l0.9,1l0.6,0.7l0.9,1l0.7,0.8l0.8,0.9
		l0.7,0.8l0.8,1l0.7,0.8l0.8,1l0.7,0.8c0.3,0.3,0.5,0.6,0.8,1l0.6,0.9l0.8,1l0.6,0.9l0.7,1l0.6,0.9l0.7,1.1l0.6,0.9
		c0.2,0.4,0.5,0.8,0.7,1.1s0.4,0.6,0.6,0.9s0.4,0.8,0.7,1.2l0.5,0.9c0.2,0.4,0.4,0.9,0.7,1.3s0.3,0.6,0.4,0.9c0.2,0.5,0.5,1,0.7,1.5
		c0.1,0.3,0.3,0.5,0.4,0.8c0.3,0.8,0.7,1.6,1,2.4l0,0c0,0-9,6.4-9.6,23.8c-11.6,9.6-25.5,27-34,58.2c-6.9,25.5-47.4,6.1-57.4,16.5
		c-7.2,7.5-12.1,15.5-11,26.1c2.1,0,9.6,4,4.5,12c-2.5,3.9-6.1,7-10.2,8.9c1.9,1.1,3.9,0.8,6.8-1.7c-0.3,0.4-0.5,0.7-0.8,1.1
		l0.8-0.6c3.4-2.4,7.9-5.9,10.7-4.8s1.8,7.1-1.4,10.1s-3.9,8.1-8.7,8c2.6,2.3,4.9,2.4,9-1.5c3.1-3,5.3-7.5,10.3-4.3s-7.2,20.1-12,21
		c1.5,0.6,6.3-1.7,10.9-4.8l0,0c-1.9,2-2.7,3.7-2.8,5.1l0,0c2.6-3.6,8.2-8.6,9.6-8.5s6.6,3.1,6.2,4.7s-6.3,7.1-6.2,8.6
		s-1.7,4.4-1.8,3.3c0-0.8-0.8-2.1-3.3-2.7c2.8,1.9,4.3,5,5.3,5.7c0.1,0.1,0.3,0.1,0.5,0c0,0.5,0.1,1,0.3,1.4
		c0.1-1.7,4.6-5.5,5.5-8.2s4-4.6,8.1-1.6c5,3.7-0.4,8.7-2.7,12.3c-0.7,1.2-1.6,2.2-2.7,3c1.4,1.2,2.4,2.4,3,2.8c0.2,0.1,0.6,0,1-0.4
		c0.1,0.3,0.3,0.5,0.5,0.8c-0.2-2.8,4.6-11.9,7.3-12.3s5.6,0,6.6,2.1s-4.9,14-5.9,14.1h-0.1c1.6,1.1,2.7,2.3,3.4,2.6
		c1.2,0.6,6.1-7.7,7.2-12.3c1.3-0.2,2.5-0.5,3.7-1c18-7.6,50.5-16.8,61.3,9.2c-13.6,16.5-36.4,38.8-64.4,45.2c0.1-2.2,0-4.4-0.4-6.5
		c-0.4-2.9-1.4-4.7-2.6-5.6c0,0.6,0.1,1.1,0.2,1.7c0.9,4,0.1,9.2-1.4,10.7s-9.7,2.2-10.2-1c-0.4-2.2,0.3-6.7,0.6-10.2
		c-0.6,0-1.2,0-1.7,0c-0.1-0.1-0.3-0.3-0.4-0.4c0,0.7,0.1,1.5,0.2,2.2c0.9,4,0.1,9.2-1.4,10.7s-9.7,2.2-10.2-1
		c-0.4-2.3,0.4-7.3,0.6-10.9h-1.4c-0.2-0.3-0.5-0.6-0.9-0.8c-0.1,0.9,0,1.9,0.2,2.8c0.9,4,0.1,9.2-1.4,10.7s-9.7,2.2-10.2-1
		c-0.4-2.4,0.5-7.7,0.7-11.4c-0.7,0-1.3,0-1.9,0c1.4,13.9-3.5,15.6-8.2,14.5s-3.5-11.6-2.4-16.7c-0.5-0.7-1-1.4-1.7-2
		c1.2,6.8-3.1,17.7-5.1,17.4c-2.2-0.3-3.6-2.2-4.8-12.2c-0.2-1.9-0.3-3.5-0.4-4.7c-0.3,0.3-0.6,0.6-0.8,1c0,0,1.5,11.9-1.3,14.8
		c-2.3,2.3-3.3,2.1-5.3-0.3c0.3,1.2,0.7,2.4,1.3,3.5l0,0c-5.3,6.4,14.4,67.4,14.4,67.4s5.6-36.4,29-34.3s83.8,37.6,83.8,37.6
		s3.5-43.9,30.5-73.5c9,5,23,7.9,46.2,8.6C389,455.7,430.9,327.5,404.3,278.8z M132.6,498.1c-0.9-0.5-10.8-43.8-10.8-45.3
		s10.9,0.2,10.8,1.9C128.7,465.7,133.5,498.7,132.6,498.1z M281.2,194.6c1.5,0.3,2.4,2-1.1,3.1s-10.5,13.5-6.6,23.2s31,28.4,21.5,29
		s-40.7-18.8-39.6-36.5S280.7,194.5,281.2,194.6z M214.7,252.4c12.8-28.3,38.6-36.2,38.6-36.2c-0.1,2.8,1.7,10.2,3.1,11.8
		c1.3,1.6-21.9,7.1-37.4,29.5S201.9,280.7,214.7,252.4L214.7,252.4z M192.1,304.3c-11.3,3.4-45.4-3.2-49.6,0.8s-3.3-4.5,5.1-6.4
		s31.6,1,42.4-2.1c3.9-1.1,6.3-4,7.4-2.6C200.7,298.2,203.4,300.9,192.1,304.3L192.1,304.3z M257,376.9
		c-0.9-6.8-50.5-21.8-59.5-33.8s-7.2-21.6-5.6-26.7s7-7.7,10.8-3.4c1.9,3.6,4.7,6.7,8.2,8.9c5.9,3.8,29.1-12,29.1-12l7.3,0.1
		c7.3,0.1,3.4,10.8-5.6,16.5s14.4,11.3,40,17.2S257.8,383.7,257,376.9z M280.6,415.3c-8.3-2.9-17.6-1.1-24.3,4.7
		c-12,10.7-33.5,25.7-60.3,26.1c0,0,38.8-9,67.9-49.8c1.3-1.9,4-2.4,5.9-1c0.1,0.1,0.3,0.2,0.4,0.3c12.1,10.8,26.6,18.5,42.3,22.5
		C312.6,418.1,303.1,423.1,280.6,415.3L280.6,415.3z M343.7,251.4c-9.2,1.9-30.5,0.9-30.5-1.7s0.3-7.7,16.1-9.3s28.2-11.7,26.5-17.4
		s-3.9-6.4-3-8.1c1.5-2.9,14.2,7.6,14.7,15.4S352.9,249.5,343.7,251.4L343.7,251.4z M405,303.7c-4-20.3-39.1-48.6-42.2-53.5
		s4.6-16.2,9-14.2c8.5,3.8,19.7,22.9,30.6,42.1S409,324,405,303.7z"/>
	<path id="_1" class="necro12" d="M404.3,278.8c-26.5-48.6-34-44.1-34-44.1s3-12.7-18.9-24.8c0,0,16.8,34.2-42,28.1c0,0,3.9,7.5-1,14.1
		c-4.9,6.6-30.4-1.6-36-9.6s-9.3-2.2-4.5,26.1s-16.7,50.5-12.4,56c4.3,5.4,43.2,3.2,52.1,27.5s9.6,42-10,48.8
		c-2.4,0.9-4.7,2-6.9,3.4c5.7,3.4,20,11.3,34.3,15.7c0,0-23.4,1.4-46.3,25.3c9,5,23,7.9,46.2,8.6C389,455.7,430.9,327.5,404.3,278.8
		z"/>
</g>
<g id="Fumée1">
	<path class="necro3" d="M154.1,413.1c-2.3-12.1,20.8-22.1,27.8-20.1s32.7-60.5,64-22.3s-15.8,25,55.8,39.5c34.7,7,38,46.6,61.9,28.2
		c28.4-21.9-49.4-51.5,39.8-154.3c34.9-40.2,179.2-36.1,175.1,49.6s85.8,16.8,71.7,115.5s-98.1,115.9-51.6,188.7
		s-3.5,164.3-3.5,164.3l-285.1,53.7c0,0-62-198.1-155.8-198.9s-115.8-82.9-31-105.3s23.9-57.9,53.5-80S161.9,454,154.1,413.1z"/>
</g>
<g id="Livre1">
	<path class="necro13" d="M310.1,855.8c4.7-18.2,34.9-14.2,40.1-12.6s31.7-43,54.7-65.6s112.8-93,112.8-93s371.4-103.2,380-101
		s7.1,34.7,7.1,34.7L355.9,885.1L310.1,855.8z"/>
	<path class="necro14" d="M299.3,874.6c2.1-12.2,6.7-23.4,18.5-17.2s28.7,29.8,47-10.5c3.2-7.5,154.6-106.3,167.4-111.7
		s369.6-130.4,382.5-120S682,811,669.9,814.2S352.7,900.4,347,898S297.4,885.5,299.3,874.6z"/>
</g>
</svg>
