<?xml version="1.0" encoding="utf-8"?>
<!-- Generator: Adobe Illustrator 23.0.3, SVG Export Plug-In . SVG Version: 6.00 Build 0)  -->
<svg version="1.1" xmlns="http://www.w3.org/2000/svg" xmlns:xlink="http://www.w3.org/1999/xlink" x="0px" y="0px"
	 viewBox="0 0 1000 1000" style="enable-background:new 0 0 1000 1000;" xml:space="preserve">
<style type="text/css">
	.pyro1{opacity:0.1;fill:#72FF21;}
	.pyro2{fill:#CDFF4A;}
	.pyro3{fill:#E0FF8F;}
	.pyro4{fill:#3D322B;}
	.pyro5{opacity:0.5;fill:#1F140F;}
	.pyro6{opacity:0.3;fill:#1F140F;}
	.pyro7{fill:#2B221C;}
	.pyro8{opacity:0.2;}
	.pyro9{fill:#72FF21;}
	.pyro10{opacity:0.2;fill:#1F140F;}
</style>
<g id="Calque_2">
	<circle class="pyro1" cx="500" cy="500" r="410.5"/>
	<circle class="pyro1" cx="500" cy="500" r="314.2"/>
</g>
<g id="Calque_1">
	<g>
		<path class="pyro2" d="M509.3,703.4c-83.6-5-112.9-34.8-137.3-98.8s8.9-160.9,32.9-220.1c24-59.3,9.9-173.6,9.9-173.6
			s39.5,73.4,42.3,118.5c0,0,59.4-228.1,57.9-306.7c0,0,50.7,212.1,50.7,288.3s-7.1,108.7-7.1,108.7s53-16.9,54.7-100.2
			c0,0,35.6,147,18.7,240C615.1,652.6,575.6,707.4,509.3,703.4z"/>
		<path class="pyro3" d="M565.9,512c0,0,35.6,36.3,18.4,93.3c-17.1,56.9-56.5,97.4-127,52.8s-48.7-166-11.5-208.7
			s69.6-256.8,69.6-256.8s12.5,222.7-15.3,311.9C472.2,593.6,573.7,609.1,565.9,512z"/>
	</g>
	<g>
		<path class="pyro4" d="M695.8,694.3c8.4-11,20.6-36.6,13.6-41.3c-7-4.7-31.9-11.3-33.5-7.5S658.7,690.2,644,700
			c0,0,18.3-43.4,7.6-49.7c-10.8-6.3-30.8-4.7-30.8-4.7s-26.9,61.9-38,68.8c-11.1,7,38.4,31.6,38.4,31.6L695.8,694.3z"/>
		<path class="pyro5" d="M695.8,694.3c8.4-11,20.6-36.6,13.6-41.3c-7-4.7-31.9-11.3-33.5-7.5S658.7,690.2,644,700
			c0,0,18.3-43.4,7.6-49.7c-10.8-6.3-30.8-4.7-30.8-4.7s-26.9,61.9-38,68.8c-11.1,7,38.4,31.6,38.4,31.6L695.8,694.3z"/>
		<path class="pyro4" d="M757,675l13.6-28.5L715,628.7c0,0-26.8,81.7-135.9,112.5s-19.2,67.2-16.5,66.6s124.2-52.9,124.2-52.9L757,675
			z"/>
		<path class="pyro6" d="M757,675l13.6-28.5L715,628.7c0,0-26.8,81.7-135.9,112.5s-19.2,67.2-16.5,66.6s124.2-52.9,124.2-52.9L757,675
			z"/>
		<path class="pyro7" d="M619.3,721.9c5.5,21.3,20.4,33.4,21,36.6c0.6,3.2,32.2,34.7-16.2,38.2s-83.7-7.5-83.7-7.5l-2.1-17.8
			L619.3,721.9z"/>
		<path class="pyro8" d="M619.3,721.9c5.5,21.3,20.4,33.4,21,36.6c0.6,3.2,32.2,34.7-16.2,38.2s-83.7-7.5-83.7-7.5l-2.1-17.8
			L619.3,721.9z"/>
		<path class="pyro9" d="M715,628.7c-1.7,5.7-4.1,11.2-6.7,16.6c-2.7,5.3-5.7,10.5-9,15.5c-6.6,10-14.2,19.3-22.7,27.8
			c-8.5,8.4-17.9,16-27.9,22.6c-10,6.5-20.6,12.1-31.7,16.4c10.3-5.9,20.3-12.2,29.8-19.1c1.2-0.8,2.3-1.8,3.5-2.7
			c1.2-0.9,2.4-1.7,3.5-2.7c2.3-1.8,4.6-3.7,6.8-5.6c2.3-1.9,4.4-3.9,6.6-5.8c1.1-1,2.1-2,3.2-3c1.1-1,2.1-2,3.1-3.1
			c2.1-2,4.1-4.2,6.2-6.3c2-2.2,3.9-4.3,5.9-6.6c3.9-4.4,7.5-9,11-13.8c3.5-4.7,6.8-9.6,9.9-14.6C709.5,639.2,712.4,634,715,628.7z"
			/>
		<path class="pyro9" d="M621.4,721.6c0.1,2.2,0.6,4.4,1.2,6.6c0.6,2.2,1.5,4.4,2.4,6.5c0.9,2.1,2,4.3,3.1,6.3
			c1.1,2.1,2.3,4.1,3.7,6.1c-1.6-1.8-3.1-3.6-4.6-5.5c-1.4-1.9-2.8-3.9-4.1-5.9c-1.3-2.1-2.5-4.2-3.5-6.4c-1-2.3-1.9-4.6-2.4-7.1
			L621.4,721.6z"/>
		<path class="pyro4" d="M723.2,658.9c0,0-31.5,110.6-154.3,117.7c42.7-30,75.4-72.4,75.4-72.4l-41.2-45.3c0,0-81.7,72.7-151.6,72.7
			s-76.2,0-76.2,0l-24.4,62l-164.1,206.4h201.5l80.7-149.2c94.9,0,154.8,0,175.3,0c20.6,0,98.8-53.3,137.9-163.8L723.2,658.9z"/>
		<path class="pyro10" d="M689.9,790.2c-12.5,4.5-42.7-23-55.9-29.5c0,0,0,0,0,0c-18.1,8.4-39.6,14.4-65.1,15.8
			c42.7-30,75.4-72.4,75.4-72.4l-8.5-9.3c-16.7,30.3-60.2,69.6-73.2,69.6c-13.9,0-60.2-31.7-70.7-39.8c0,0,0,0,0,0
			c-13.5,4.3-27.2,6.9-40.5,6.9c-70,0-76.2,0-76.2,0l-24.4,62l-81.4,102.4c34.4,24,93.8,65.1,100.1,68.8c4.2,2.5-9.6,19.1-24.6,35.2
			h43.3l80.7-149.2c94.9,0,154.8,0,175.3,0c20.6,0,98.8-53.3,137.9-163.8l-14-6.7C755,709.7,702.4,785.7,689.9,790.2z"/>
		<path class="pyro7" d="M492,724.7c3.9,11.2,57.3,54.4,79.2,51.7c21.9-2.7,59.8-21.7,62.8-15.7c3.1,6.1,57.7,46.3,71.8,50.1
			s-48.2,42.9-57.9,44.5c-9.8,1.5-171.6-7-179.1,0c-7.5,7-45.9,117.8-65.9,115.1c-20-2.7-140.1-80.3-136-85.8
			c4.1-5.5,80.3-88.5,81-94.7c0.7-6.2,22.6-64.5,30.2-65.2C385.6,724.1,489.9,718.8,492,724.7z"/>
		<path class="pyro8" d="M522.4,799c0,0,61-11.7,75.6-22.5c6.9-5.1,13.9-10,19.3-13.8c-13.7,4.4-32.9,12.1-46.2,13.7
			c-0.8,0.1-1.7,0.1-2.6,0.1c-1.2,0.8-2.4,1.6-3.4,2.3C553.7,787.4,522.4,799,522.4,799z"/>
		<path class="pyro8" d="M705.8,810.8c-7.4-2-25.7-13.9-42-25.6c-8.1,9.6-17.9,21-27.3,30.7c-21,21.8-157.1,13.7-181.6,11.6
			c-24.4-2.1-54-19.3-56.1-10.7c-2.1,8.6,12,31.7,4.7,54.4c-4.9,15.3-27.4,55.2-41.5,79.5c18.8,10.9,34.6,18.9,40.8,19.7
			c20,2.7,58.4-108.1,65.9-115.1c7.5-7,169.3,1.5,179.1,0C657.7,853.7,719.9,814.6,705.8,810.8z"/>
		<path class="pyro9" d="M675.9,645.4c-1.4,5.4-3.1,10.7-5.1,15.9c-1,2.6-2.1,5.2-3.2,7.7c-1.2,2.5-2.4,5-3.7,7.5
			c-2.7,4.9-5.6,9.7-9.2,14.1c-1.8,2.2-3.7,4.2-5.9,6.1c-2.2,1.8-4.5,3.4-7.1,4.4c4.7-3,8.2-7.3,11.4-11.7c1.6-2.2,3.1-4.5,4.5-6.9
			c1.4-2.4,2.8-4.7,4.1-7.2c2.6-4.8,5-9.8,7.4-14.8C671.3,655.5,673.5,650.4,675.9,645.4z"/>
		<path class="pyro9" d="M620.8,645.6c-0.7,1.9-1.4,3.7-2.2,5.6c-0.8,1.8-1.6,3.7-2.4,5.5c-0.8,1.8-1.7,3.6-2.6,5.4l-1.4,2.7
			c-0.5,0.9-0.9,1.8-1.4,2.6c0.3-0.9,0.7-1.9,1.1-2.8l1.1-2.8c0.8-1.8,1.6-3.7,2.4-5.5c0.8-1.8,1.7-3.6,2.6-5.4
			C618.9,649.1,619.8,647.3,620.8,645.6z"/>
		<path class="pyro9" d="M577.3,678.4l-6.8,4.4l-1.7,1.1l-1.7,1l-3.5,2.1l-3.5,2.1c-1.2,0.7-2.3,1.3-3.5,2c-2.3,1.3-4.7,2.7-7,4
			c-9.5,5.1-19.1,10.1-28.8,14.7c-9.4,4.5-18.9,8.7-28.5,12.6c0,0,0,0-0.1,0l-0.6-0.3l-0.6-0.2c-0.8-0.3-1.4-0.4-2.1-0.6
			c-1.4-0.3-2.7-0.4-4-0.6c-2.6-0.3-5.2-0.4-7.8-0.6c-5.2-0.2-10.4-0.3-15.5-0.2c-10.3,0.1-20.7,0.4-31,0.9
			c-10.3,0.5-20.6,1.1-30.9,1.8c-5.1,0.4-10.3,0.8-15.4,1.2c-1.3,0.1-2.6,0.2-3.9,0.4c-0.6,0.1-1.3,0.2-1.9,0.3
			c-0.6,0.1-1.3,0.3-1.9,0.7c-0.6,0.3-1.1,0.9-1.5,1.4c-0.4,0.5-0.7,1.1-1,1.7c-0.7,1.1-1.3,2.2-2.1,3.3c0.8-1,1.6-2,2.3-3.1
			c0.8-1,1.4-2.2,2.5-2.7c1.1-0.5,2.4-0.6,3.6-0.6c1.3-0.1,2.6-0.1,3.8-0.1l15.5-0.3l30.9-0.6c10.3-0.1,20.6-0.3,30.8-0.2
			c5.1,0.1,10.3,0.1,15.4,0.4c2.5,0.1,5.1,0.3,7.6,0.6c1.2,0.1,2.5,0.3,3.6,0.6c0.6,0.1,1.1,0.3,1.6,0.4l0.3,0.1l0.2,0.1
			c0.1,0,0.1,0.1,0.1,0.1c0,0,0,0,0,0c0,0-0.1-0.1-0.1-0.1l0.5,0.2c2.4,3.5,5.1,6.6,7.9,9.7c3.1,3.3,6.3,6.3,9.7,9.2
			c3.4,2.9,7,5.5,10.6,8c3.7,2.5,7.5,4.7,11.4,6.7c-3.7-2.4-7.3-4.9-10.8-7.6c-3.4-2.7-6.7-5.6-9.8-8.7c-3.1-3.1-6-6.3-8.7-9.7
			c-2-2.6-4-5.2-5.7-8c4.2-1.7,8.3-3.5,12.4-5.4c2.5-1.1,4.9-2.3,7.4-3.4c2.5-1.1,4.9-2.3,7.4-3.5c2.4-1.2,4.9-2.4,7.3-3.7
			c2.4-1.2,4.8-2.5,7.2-3.8c2.4-1.3,4.8-2.5,7.2-3.9l7.1-4.1c9.4-5.5,18.5-11.4,27.3-17.8c8.7-6.5,17.1-13.5,24.6-21.3
			C594.9,666,586.3,672.4,577.3,678.4z"/>
		<path class="pyro9" d="M707.4,689.6c-6,9.8-12.8,19.1-20.3,27.8c-0.9,1.1-1.9,2.1-2.9,3.2c-1,1.1-1.9,2.1-2.9,3.1l-3,3.1l-3.1,3
			c-4.2,3.9-8.4,7.7-13,11.2l-1.7,1.3l-1.7,1.3l-3.5,2.5c-2.4,1.6-4.7,3.2-7.2,4.7c-4.5,2.8-9.3,5.3-14.1,7.7c0,0-0.1,0-0.1,0
			c-0.1,0-0.2-0.1-0.2-0.1c-0.5-0.2-0.9-0.3-1.4-0.4c-0.9-0.1-1.7-0.2-2.5-0.1c-1.6,0.1-3.1,0.3-4.5,0.6c-2.9,0.6-5.6,1.6-8.3,2.6
			c-5.3,2-10.5,4-15.7,6c-5.2,2-10.5,3.9-15.8,5.6c-1.3,0.4-2.7,0.8-4,1.2c-1.4,0.4-2.7,0.8-4.1,1.1c-2.7,0.7-5.5,1.2-8.3,1.5
			c5.6-0.1,11.2-1.1,16.7-2.4c5.5-1.3,10.9-2.9,16.3-4.7c5.4-1.7,10.7-3.6,16-5.3c2.7-0.9,5.3-1.7,7.9-2.1c1.3-0.2,2.6-0.4,3.9-0.4
			c0.6,0,1.2,0,1.7,0.1c0.1,0,0.2,0.1,0.4,0.1c0.1,0.2,0.2,0.3,0.4,0.4c4.9,4.3,10,8.3,15.2,12.1c2.6,1.9,5.2,3.8,7.9,5.7
			c2.7,1.8,5.4,3.6,8.2,5.1c-2.7-1.8-5.1-3.9-7.6-6c-2.4-2.1-4.8-4.3-7.1-6.5c-4-3.8-7.9-7.6-11.7-11.5l1.3-0.6l2-0.9
			c0.7-0.3,1.3-0.7,2-1l3.9-2c1.3-0.7,2.5-1.5,3.8-2.2c2.6-1.4,5-3.1,7.4-4.7l3.6-2.6l1.8-1.3l1.7-1.4c9.2-7.2,17.7-15.5,25.1-24.5
			c3.8-4.5,7.2-9.2,10.5-14c3.3-4.8,6.3-9.8,9.1-14.9c1.4-2.6,2.7-5.1,4-7.8c1.3-2.6,2.5-5.3,3.6-7.9c2.3-5.3,4.3-10.8,5.9-16.4
			C718.8,669.6,713.4,679.8,707.4,689.6z"/>
	</g>
</g>
<g id="Calque_4">
	<polygon class="pyro2" points="594.7,254.6 597.3,222.3 607.3,234.4 601,264.6 	"/>
	<path class="pyro2" d="M441,192.6c0,0-18.2-36.1-14.5-42.4c3.7-6.2,7-32.9,7-32.9s14.7,49.6,11.9,52.4
		C442.6,172.5,441,192.6,441,192.6z"/>
	<path class="pyro2" d="M561.3,54.8c0,0-4.8-21.9-3.3-24.9c1.5-3,3.3-18.6,3.3-18.6s7.4,18.2,6.3,23.4S561.3,54.8,561.3,54.8z"/>
	<path class="pyro2" d="M363.4,415.4c-4.1,8.4-1.5-61.3,2.9-70.7c0,0,6.7,20.1,12.8,32.3C385.2,389.2,367.1,407.6,363.4,415.4z"/>
	<path class="pyro2" d="M660,387c0,0-3.8,23.4,0,25.6c3.8,2.2,18.3-36.2,14.4-36.8C670.5,375.3,660,387,660,387z"/>
</g>
</svg>
