<?xml version="1.0" encoding="utf-8"?>
<!-- Generator: Adobe Illustrator 23.0.3, SVG Export Plug-In . SVG Version: 6.00 Build 0)  -->
<svg version="1.1" xmlns="http://www.w3.org/2000/svg" xmlns:xlink="http://www.w3.org/1999/xlink" x="0px" y="0px"
	 viewBox="0 0 948.5 948.5" style="enable-background:new 0 0 948.5 948.5;" xml:space="preserve">
<style type="text/css">
	.redrid1{display:none;}
	.redrid2{fill:#962D2F;}
	.redrid3{opacity:0.7;}
	.redrid4{fill:#F9E6CC;}
	.redrid5{opacity:0.1;fill:#804B3C;}
	.redrid6{opacity:0.5;fill:#D5988C;}
	.redrid7{fill:#3F94D9;}
	.redrid8{fill:#402A1F;}
	.redrid9{opacity:0.4;fill:#804B3C;}
	.redrid10{opacity:0.6;}
	.redrid11{opacity:0.1;}
	.redrid12{fill:#498A26;}
	.redrid13{opacity:0.3;}
	.redrid14{opacity:0.7;fill:#FFFFFF;}
</style>
<g id="Calque_4" class="redrid1">
</g>
<g id="Calque_5">
	<polyline class="redrid2" points="474.9,768.3 257.8,768.3 474.1,580.4 633.9,768.3 474.9,768.3 	"/>
	<polyline class="redrid3" points="474.9,768.3 257.8,768.3 474.1,580.4 633.9,768.3 474.9,768.3 	"/>
	<path class="redrid4" d="M474.1,208.6L474.1,208.6C340.4,208.6,231,318,231,451.7v56.8c0,133.7,109.4,243.1,243.1,243.1h0
		c133.7,0,243.1-109.4,243.1-243.1v-56.8C717.2,318,607.8,208.6,474.1,208.6z"/>
	<path class="redrid5" d="M474.1,208.6L474.1,208.6C340.4,208.6,231,318,231,451.7v56.8c0,133.7,109.4,243.1,243.1,243.1h0V208.6z"/>
	<path class="redrid6" d="M474.9,451.2l-30.5,145.3c-4.1,19.4,10.7,37.6,30.5,37.6h0h0c19.8,0,34.6-18.2,30.5-37.6L474.9,451.2z"/>
	<circle class="redrid7" cx="394.2" cy="484.8" r="33.7"/>
	<circle class="redrid7" cx="554" cy="484.8" r="33.7"/>
	<path class="redrid8" d="M313.3,338.1c0,0-103.7,262.1,98.6,429.9c0,0-203.1,107.9-245.7-16.4S279.7,342,313.3,338.1z"/>
	<path class="redrid8" d="M636.4,338.1c0,0,103.7,262.1-98.6,429.9c0,0,203.1,107.9,245.7-16.4S670,342,636.4,338.1z"/>
</g>
<g id="Calque_6">
	<path class="redrid9" d="M705.3,430.9c14.1-12,22.4-20.1,23-20.1l-37.9-90.4l-216.3-20.7l-216.3,20.7l-37.9,90.4
		c0.7,0,9.4,8.4,24.1,20.9c29-54.1,57.2-92.3,69.3-93.7c0,0-21.2,53.6-25.7,127.8c-0.1,0.9-0.1,1.8-0.2,2.6c0,0.3,0,0.6,0,0.8
		c-0.1,1-0.1,1.9-0.1,2.9c0,0.2,0,0.5,0,0.7c0,0.9-0.1,1.8-0.1,2.7c0,0.4,0,0.8,0,1.1c0,0.7-0.1,1.5-0.1,2.2c0,0.8,0,1.5-0.1,2.3
		c0,0.3,0,0.7,0,1c-0.8,33.2,1.9,69.8,11.3,107.1c-4.4-70.9,67.1-59.2,137.6-53.8c0,0,0,0,0,0c5.3,0,26.6-11,39.1-11
		c12.5,0,27.8,8.9,39,8.9c56.3-10.5,109.1-40.9,148.2-68.8c-4.7-73.6-25.6-126.6-25.6-126.6C648.5,339.5,676.4,377.3,705.3,430.9z"
		/>
	<path class="redrid10" d="M231,681.5c-12.6-69.7,56.6-215.8,56.6-215.8c0,0.1,0,0.1,0,0.2c4.5-74.2,25.7-127.8,25.7-127.8
		c-12.1,1.4-40.3,39.6-69.3,93.7c1.7,1.4,3.4,2.9,5.2,4.4c-15.3,28.2-34.5,64.3-53.5,101.4c-29.6,77.7-47.9,160.7-29.6,214.1
		c1.9,5.7,4.2,10.8,6.8,15.6c28.7,24.4,65.8,38.4,84.9,43.2c1.9,0.5,3.9,0.8,6,1c15.3-0.4,31.1-2.7,46.3-6.1
		c47-12.1,101.7-37.3,101.7-37.3S243.6,751.3,231,681.5z"/>
	<path class="redrid10" d="M636.4,338.1c0,0,21,53,25.6,126.6c17.4-12.4,32.1-24.4,43.2-33.8C676.4,377.3,648.5,339.5,636.4,338.1z"/>
	<path class="redrid2" d="M650.6,246.5c-68.4-58.1-87.8-65.8-87.8-65.8s-32.7-59.4-88-59.4v0l0,0c-55.3,0-88,59.4-88,59.4
		s-19.4,7.7-87.8,65.8S52.5,582.1,91.2,751.6s244,77.1,320.2,62.9c47.6-8.9,60.2-31.2,63-46.7c3.2,15.5,16.4,37.8,64,46.7
		c76.2,14.2,281.4,106.6,320.2-62.9C897.2,582.1,719.1,304.6,650.6,246.5z M746.2,740.9c-46.5,83.9-272.1,10.7-272.1,10.7
		S250,824.8,203.5,740.9c-46.5-83.9,78.7-369.2,102-382.1c23.2-12.9,102,49.1,169.3,49.1v0l0,0c67.3,0,146.1-62,169.3-49.1
		C667.4,371.7,792.6,657,746.2,740.9z"/>
	<path class="redrid11" d="M476.9,407.8c50.8-0.9,107.7-36.1,142.2-47.4c-73.3,16.2-144.1-65.2-144.3-181.8v18.2c0-0.1,0-0.2,0-0.3
		v-17.7c0-0.2,0-0.2,0-0.2l0,0v-0.5c-19.3-0.1-45.2-42,0-56.9c-55.3,0-88,59.4-88,59.4s-19.4,7.7-87.8,65.8S52.5,582.1,91.2,751.6
		s244,77.1,320.2,62.9c46.4-8.6,59.5-30.1,62.7-45.5v-17.4c-45.1,41.4-320.2,153.9-279-92.1c0,0,0,0,0,0
		c13-116.7,92.4-290.7,110.4-300.7c23.2-12.9,102,49.1,169.3,49.1v-2.2l0,0v2.2C475.5,407.9,476.2,407.8,476.9,407.8L476.9,407.8
		C476.8,407.8,476.9,407.8,476.9,407.8z"/>
	<circle class="redrid12" cx="474.9" cy="768.3" r="42.2"/>
	<path class="redrid13" d="M491.5,793.8c-23.3,0-42.2-18.9-42.2-42.2c0-7.4,1.9-14.3,5.2-20.3c-13,7.2-21.8,21-21.8,37
		c0,23.3,18.9,42.2,42.2,42.2c15.9,0,29.8-8.8,37-21.8C505.8,791.9,498.9,793.8,491.5,793.8z"/>
	<circle class="redrid13" cx="474.9" cy="768.3" r="35.6"/>
	<circle class="redrid14" cx="489.1" cy="754" r="21.4"/>
</g>
</svg>
