<?xml version="1.0" encoding="utf-8"?>
<!-- Generator: Adobe Illustrator 23.0.1, SVG Export Plug-In . SVG Version: 6.00 Build 0)  -->
<svg version="1.1" xmlns="http://www.w3.org/2000/svg" xmlns:xlink="http://www.w3.org/1999/xlink" x="0px" y="0px"
	 viewBox="0 0 948.55 948.55" style="enable-background:new 0 0 948.55 948.55;" xml:space="preserve">
<style type="text/css">
	.st0{fill:none;}
	.st1{fill:#B3A834;}
	.st2{fill:#A3992F;}
	.st3{opacity:0.5;fill:#4A4515;}
	.st4{fill:#BF9191;}
	.st5{fill:#EDBBBB;}
	.st6{fill:#2E2B25;}
	.st7{fill:#332F2A;}
	.st8{fill:#3C3731;}
	.st9{fill:#F2F22E;}
	.st10{opacity:0.5;fill:none;stroke:#F2F22E;stroke-width:10;stroke-linejoin:round;stroke-miterlimit:10;}
	.st11{opacity:0.1;}
	.st12{fill:#CCC03B;}
	.st13{opacity:0.2;fill:#4A4515;}
	.st14{display:none;}
	.st15{display:inline;}
	.st16{fill:#383838;}
</style>
<g id="Calque_2">
	<g>
		<rect class="st0" width="948.55" height="948.55"/>
	</g>
</g>
<g id="Calque_17">
	<path class="st1" d="M25.19,948.55c8,0,19.5-119.28,91.5-114.09c72,5.2,122.96-121.3,178.73-142.8s204.27,20.64,204.27,20.64
		s182-289.64,291.5-258.14s95.06,143.69,32.77,223s39.73,149,52.23,195s32,76.39,46,76.39H25.19z"/>
	<path class="st2" d="M876.19,872.16c-12.5-46-114.51-115.69-52.23-195c49.88-63.51,69.06-148.1,18.49-195.46
		c19.09,21.25,20.91,62.71,4.4,89.13c-16.67,26.67-59.33,50.67-95.33,36s-32-70.44,6.67-77.22c0,0-39.33-1.37-56.67,37.92
		s11.33,65.96,51.33,81.96s12.67,74-68,77.33s-66-104.67-72.67-96c-6.67,8.67-74,86-81.33,88.67c-7.33,2.67,20.67-52.67,20.67-52.67
		s-26.44,31.3-35.33,31.3c-3.09,0-0.23-7.76,4.81-17.89c-13.44,19.55-21.31,32.07-21.31,32.07s-105.77-30.01-172.3-26.46
		c42.7,1.18,43.3,6.15,44.63,16.12c1.33,9.97-34.67,6.03-69.33,13.37c-34.67,7.33-86.52,80.82-89.33,70
		c-2.71-10.45,23.59-41.96,25.39-44.1c-36.49,43.17-74.73,96.66-122.06,93.24c-72-5.2-83.5,114.09-91.5,114.09h897
		C908.19,948.55,888.69,918.16,876.19,872.16z"/>
	<path class="st1" d="M230.03,786.99c0,0,51.79-54.67,65.4-60c13.6-5.33,62.94-12.67,62.6-9.33c-0.33,3.33-6.67,13.33-11.33,15.33
		s-28.33,1.33-44.67,8.33c-16.33,7-25.67,16.33-25.67,16.33s20.33-9,37.33-13s26.67-4.33,26.67-1c0,3.33-15.67,23.33-28.33,33.67
		c-12.67,10.33-27.33,18-35.67,18.67c-8.33,0.67-29.33-0.33-29-2c0.33-1.67,33.67-27.33,55.67-30.33c0,0-27.67-1.67-46,12.33
		c-18.33,14-19.67,14-21.67,13.67C233.36,789.32,230.03,786.99,230.03,786.99z"/>
	<path class="st3" d="M839.78,479.27c-0.11,1.06-0.22,2.11-0.33,3.14c-1.94,14.69-6.68,28.7-14.12,41.7
		c-7.06,12.44-16.69,24.48-28.63,35.82c-1.19-2.54-3.08-4.72-5.5-6.26c0.49-3.24-0.1-6.58-1.7-9.49
		c-6.1-11.03-19.77-25.26-40.76-42.45c0.03-0.07,0.05-0.14,0.08-0.21c2.14-5.96,0.3-12.62-4.58-16.64l-3.38-2.78l0.03-0.01
		c4.49-1.77,7.85-5.59,9.04-10.26c1.19-4.67,0.05-9.64-3.04-13.33c-0.47-0.56-0.96-1.12-1.46-1.68
		C637.48,493.03,499.69,712.3,499.69,712.3s-148.5-42.14-204.27-20.64c-28.05,10.81-54.89,48.19-83.79,82.01
		c18.02,2.88,36.33,3.36,47.6-0.43c10.41-3.5,25.22-18.65,52.28-54.93c-0.11,0.92-0.21,1.82-0.29,2.71
		c-0.52,4.58-3.58,38.59,16.09,57.62c3.42,13.5,11.32,24.3,22.66,30.81c14.21,8.17,32.76,2.14,50.88-16.53
		c4.59-4.74,8.75-9.91,11.7-14.58c0.96-1.52,2.58-4.07,3.76-7.21c3.8,12.03,9.21,22.51,16.29,31.63
		c16.53,21.3,47.48,37.62,84.59,45.06c-3.36,7.9-10.67,21.12-26.51,42.17c-16.69,22.19-34.13,41.37-34.31,41.56
		c-4,4.39-5.04,10.73-2.64,16.17c0.13,0.28,0.26,0.56,0.41,0.83h93.86c0.64-1.21,4.2-7.99,9.18-17.89h70.03
		c7.13,0,10.88-3.92,19.09-12.52c5.08-5.31,11.65-12.48,18.53-20.19c17.31-19.42,33.49-38.88,44.4-53.37
		c10.36-13.76,16.22-23.04,18.69-30.31c31.67-23.46,56.07-57.56,67.43-94.46c2.43-7.9,5.31-15.42,8.57-22.39
		c3.86-2.63,6.97-4.7,9.09-6.11c0.04-0.03,0.09-0.06,0.12-0.08l0.66-0.44c0.02-0.01,0.12-0.08,0.14-0.09l0.58-0.38
		c0.02-0.01,0.12-0.08,0.14-0.09l0.76-0.5c2.09-3.59,4.49-7.2,7.24-10.84c0.11-0.77,0.17-1.56,0.16-2.35
		c-0.04-2.35-0.62-4.61-1.67-6.64c5.9-6.98,10.35-10.21,10.97-10.65c4.3-2.63,6.82-7.12,7.03-11.93c3.59-3.19,7.06-6.43,10.44-9.7
		C879.32,580.55,883.25,517.04,839.78,479.27z M585.37,869.72c2.95-7.2,5.6-14.16,7.71-20.48c1.32-0.24,2.63-0.48,3.92-0.75
		c2.96,0.27,5.9,0.48,8.83,0.64C599.37,856.17,592.31,863.18,585.37,869.72z"/>
</g>
<g id="Calque_10">
	<path class="st4" d="M175.92,601.78c0,0-56.1-147.88,5.25-160.81c61.35-12.93,57.11,98.19,57.11,98.19L175.92,601.78z"/>
	<path class="st4" d="M534.86,835.51c3.8,28.08-67.41,106.14-67.41,106.14h67.22c0,0,58.69-111.09,47.31-123.01
		S534.86,835.51,534.86,835.51z"/>
	<path class="st5" d="M714.48,627.41c-0.14,0.07,0.19-0.05,0.35-0.1l0.65-0.23l1.42-0.52l2.99-1.15c2.03-0.8,4.1-1.66,6.17-2.54
		c4.14-1.76,8.29-3.68,12.4-5.67c8.23-3.99,16.33-8.37,24.16-13.08c15.68-9.42,30.4-20.2,43.34-32.31
		c12.94-12.11,24.07-25.6,32.41-40.29c8.39-14.68,13.78-30.6,15.96-47.29c0.47-4.18,0.9-8.39,0.97-12.66
		c0.11-2.13,0.06-4.27,0.05-6.41c0.02-1.1-0.05-2.09-0.1-3.09l-0.14-3.02c-0.38-3.94-0.79-7.88-1.66-11.59
		c-0.34-1.91-0.91-3.7-1.38-5.55c-0.25-0.91-0.59-1.79-0.88-2.69l-0.44-1.35c-0.15-0.45-0.35-0.87-0.51-1.31l-1.04-2.62l-1.19-2.55
		c-0.37-0.87-0.84-1.68-1.28-2.51c-0.47-0.82-0.84-1.69-1.38-2.48c-1.89-3.29-4.19-6.4-6.65-9.48c-2.5-3.05-5.35-5.96-8.36-8.81
		c-3.08-2.81-6.39-5.52-9.9-8.12c-7.08-5.16-14.89-9.91-23.23-14.25c-8.32-4.37-17.11-8.39-26.15-12.22
		c-18.08-7.69-37.13-14.64-56.34-22.31c-19.2-7.68-38.71-16.01-57.46-27.04c-4.67-2.8-9.31-5.69-13.82-8.89
		c-2.28-1.54-4.48-3.25-6.7-4.9c-1.1-0.84-2.18-1.74-3.27-2.61c-1.09-0.87-2.17-1.75-3.22-2.68l-3.17-2.76l-3.08-2.9
		c-1.04-0.95-2.03-1.96-3.01-2.98c-0.98-1.02-1.99-2.01-2.94-3.07c-3.84-4.19-7.43-8.65-10.72-13.32c-0.82-1.17-1.58-2.39-2.37-3.58
		l-1.17-1.8l-1.09-1.85l-2.14-3.72l-1.95-3.82c-0.67-1.26-1.26-2.57-1.83-3.88c-0.57-1.31-1.17-2.6-1.71-3.93
		c-1-2.7-2.1-5.35-2.89-8.13c-3.5-10.97-5.02-22.59-4.61-33.99c0.16-5.71,0.96-11.35,2.03-16.89c1.09-5.54,2.73-10.91,4.61-16.15
		c1.91-5.24,4.27-10.25,6.83-15.12c2.6-4.85,5.56-9.47,8.7-13.92c12.73-17.7,29.48-32.04,48.53-41.87c4.79-2.41,9.68-4.6,14.73-6.41
		c5.06-1.78,10.21-3.27,15.46-4.37c5.26-1.05,10.6-1.73,15.96-1.99c5.36-0.23,10.75,0.05,16.06,0.76c5.32,0.68,10.55,2.01,15.6,3.74
		c1.25,0.47,2.54,0.83,3.75,1.39l3.68,1.57c2.38,1.2,4.79,2.33,7.04,3.74c2.32,1.29,4.46,2.86,6.64,4.34
		c2.06,1.65,4.21,3.18,6.12,4.99c3.98,3.43,7.49,7.33,10.78,11.34c6.48,8.14,11.68,17.12,15.84,26.48
		c4.14,9.38,7.26,19.12,9.7,28.99c-3.15-9.67-6.96-19.11-11.7-28.02c-4.76-8.89-10.47-17.24-17.21-24.55
		c-3.42-3.6-7-7.03-10.96-9.96c-1.9-1.56-4.01-2.84-6.02-4.22c-2.12-1.21-4.18-2.52-6.4-3.54c-2.15-1.15-4.42-2.01-6.65-2.94
		l-3.43-1.18c-1.13-0.43-2.32-0.66-3.48-1.01c-4.66-1.22-9.42-2.08-14.22-2.33c-4.8-0.28-9.61-0.18-14.38,0.37
		c-4.77,0.58-9.48,1.54-14.11,2.81c-4.62,1.33-9.14,3-13.54,4.92c-4.4,1.95-8.64,4.24-12.76,6.71
		c-16.41,10.02-30.39,23.99-40.24,40.09c-9.86,16.06-15.45,34.46-14.74,52.31c0.35,8.91,2.16,17.65,5.47,25.83
		c0.74,2.07,1.77,4.04,2.67,6.05c0.49,0.99,1.05,1.97,1.56,2.96c0.52,0.99,1.04,1.97,1.64,2.91l1.73,2.85l1.88,2.75l0.94,1.37
		l1.02,1.32c0.68,0.88,1.33,1.78,2.03,2.64c11.2,13.84,26.57,24.33,43.48,32.74c16.99,8.4,35.5,14.84,54.53,20.87
		c19.05,6.05,38.69,11.62,58.6,18.4c9.95,3.39,19.98,7.1,30.02,11.46c10.03,4.32,20.08,9.39,29.91,15.51
		c4.91,3.09,9.75,6.48,14.47,10.18c4.69,3.78,9.27,7.82,13.58,12.32c4.27,4.53,8.37,9.34,12,14.59c0.96,1.27,1.77,2.66,2.65,3.99
		c0.86,1.35,1.74,2.68,2.51,4.09l2.36,4.19l2.13,4.31c0.35,0.72,0.72,1.44,1.04,2.17l0.94,2.21c0.61,1.48,1.27,2.95,1.82,4.44
		c1.06,3,2.2,6,3.03,9.04c1.87,6.07,3.06,12.2,4.07,18.32l0.58,4.57c0.19,1.53,0.39,3.07,0.49,4.5c0.24,2.93,0.51,5.86,0.6,8.82
		c0.32,5.9,0.21,11.85-0.04,17.8c-0.66,11.9-2.44,23.83-5.45,35.44c-1.47,5.82-3.31,11.52-5.3,17.17c-2.09,5.59-4.34,11.14-6.9,16.5
		c-10.17,21.53-23.95,40.76-39.47,57.61c-15.56,16.88-32.86,31.52-51.12,44.42c-9.14,6.45-18.54,12.47-28.22,18.07
		c-4.85,2.8-9.75,5.51-14.78,8.12c-2.52,1.31-5.06,2.59-7.67,3.85l-4,1.89l-2.09,0.95l-1.12,0.49l-1.42,0.6L714.48,627.41z"/>
	<path class="st4" d="M907.5,470.86c-0.09-2.96-0.36-5.89-0.6-8.82c-0.1-1.44-0.29-2.98-0.49-4.5l-0.58-4.57
		c-1.01-6.12-2.2-12.24-4.07-18.32c-0.83-3.04-1.96-6.04-3.03-9.04c-0.55-1.49-1.21-2.96-1.82-4.44l-0.94-2.21
		c-0.32-0.73-0.69-1.45-1.04-2.17l-2.13-4.31l-2.36-4.19c-0.77-1.41-1.65-2.75-2.51-4.09c-0.88-1.33-1.69-2.72-2.65-3.99
		c-3.62-5.26-7.73-10.07-12-14.59c-4.31-4.49-8.9-8.54-13.58-12.32c-4.72-3.7-9.56-7.08-14.47-10.18c-2.12-1.32-4.25-2.58-6.38-3.8
		c27.11,19.27,49.79,53.19,35.57,112.15c-14.22,58.96-58.58,92.79-73.37,104.78c0,0,0,0,0,0c-11.71,10.32-24.7,19.61-38.44,27.86
		c-7.84,4.71-15.93,9.09-24.16,13.08c-4.11,1.99-8.26,3.9-12.4,5.67c-2.07,0.89-4.13,1.74-6.17,2.54l-2.99,1.15l-1.42,0.52
		l-0.65,0.23c-0.11,0.03-0.28,0.09-0.35,0.11l25.42,66.37l1.42-0.6l1.12-0.49l2.09-0.95l4-1.89c2.61-1.26,5.15-2.54,7.67-3.85
		c5.04-2.6,9.94-5.32,14.78-8.12c9.68-5.61,19.08-11.62,28.22-18.07c18.27-12.9,35.56-27.55,51.12-44.42
		c15.52-16.86,29.3-36.08,39.47-57.61c2.56-5.36,4.81-10.91,6.9-16.5c2-5.64,3.84-11.35,5.3-17.17c3.01-11.61,4.78-23.55,5.45-35.44
		C907.7,482.71,907.82,476.76,907.5,470.86z"/>
	<path class="st5" d="M714.16,805.66c3.74,12.99-84.26,110-86.96,110c-2.71,0-72.02,0-72.02,0s95.04-74.26,90.16-106.75
		C640.46,776.41,714.16,805.66,714.16,805.66z"/>
	<path class="st6" d="M339.48,647.35c18.31-14.44-24.47,72.74-10.93,92.78c13.54,20.04,83.39-73.1,94.77-73.1
		s-15.16,79.8,21.12,126.54c36.28,46.74,160.29,65.15,210.11,7.75c49.82-57.4,153.25-124.55,153.25-124.55l-20.04-12.45
		c0,0-38.99-75.27-27.62-81.23c11.37-5.96,22.98-16.79,22.98-16.79s-23.52-14.08-38.68-21.66c-15.16-7.58-38.99-48.19-38.99-48.19
		h29.24l-36.82-30.32l-59.57-36.28l48.74-13c0,0-49.28-34.12-98.01-30.32c-48.74,3.79-88.81-8.12-88.81-8.12l48.74-16.79
		c0,0-86.47-4.87-101.45,2.71C432.52,371.9,339.48,647.35,339.48,647.35z"/>
	<path class="st7" d="M756.9,712.3c28.74-21.14,50.89-35.53,50.89-35.53l-20.04-12.45c0,0-38.99-75.27-27.62-81.23
		c11.37-5.96,22.98-16.79,22.98-16.79s-23.52-14.08-38.68-21.66c-15.16-7.58-38.99-48.19-38.99-48.19h29.24l-36.82-30.32
		l-59.57-36.28l48.74-13c0,0-49.28-34.12-98.01-30.32c-48.74,3.79-77.17,0.81-77.17,0.81l37.09-25.72c0,0-59.57-18.71-103.7-4.34
		c-2.53,0.82-4.45,16.18-10.07,28.67l189.04,211.24L756.9,712.3z"/>
	<path class="st4" d="M326.13,722.58c-1.19,8.52-2.27,47.15,25.52,52.39c27.8,5.23,23.47-24.91,23.47-24.91
		S330.75,729.94,326.13,722.58z"/>
	<path class="st8" d="M792.89,646.64c11.24-7.27,24.46-30.04,24.46-30.04H784.3c6.61-6.9,21.82-35.32,21.82-35.32
		c-12.56,3.4-49.59-20.59-49.59-20.59l19.83-9.26c-13.88-25.12-78.02-68.71-78.02-68.71l37.02-14.6
		c-34.38-40.99-131.57-64.58-131.57-64.58l31.07-24.01c-64.79-22.48-148.1-8.6-148.1-8.6L500,345.81
		c-86.28-16.54-181.49,41.71-191.41,66.78c-9.88,24.97-51.24,39.01-84.17,70.13l128.13,152.01l2.27-3.1
		c27.39-40.79,61.21-41.86,84.22-27.55c23.02,14.31,19.3,49.83,19.96,125.2s107.11,113.06,182.48,103.8
		c75.37-9.26,123.64-66.12,139.5-117.69s42.98-68.76,42.98-68.76H792.89z"/>
	<path class="st7" d="M774.76,704.93c-13.54,24.91-87.73,77.98-145.13,79.06c-57.4,1.08-125.27-77.08-110.11-115.7
		c15.16-38.63,34.3-123.47,31.7-144.14c-2.6-20.67-138.06-35.49-148.48-21.95c-8.01,10.41-25.35,79.87-32.95,111.48
		c23.99-22.71,50.29-21.39,69.26-9.6c23.02,14.31,19.3,49.83,19.96,125.2s107.11,113.06,182.48,103.8
		c75.37-9.26,123.64-66.12,139.5-117.69s42.98-68.76,42.98-68.76C806.57,652.78,788.3,680.02,774.76,704.93z"/>
	<path class="st8" d="M280.3,472.91l-55.87,9.81c0,0-59.63,69.7-58.39,131.64c0.65,32.15,3.67,27.81-6.43,57.93
		c-10.1,30.12-10.5,54.44,5.43,69.03s71.05,23.87,89.41,17.7s85.11-106.44,98.11-124.29C408.47,559.67,355.85,533.78,280.3,472.91z"
		/>
	<path class="st7" d="M325.82,535.97c0,0,54.72-21.11,52.55-74.9c-2.17-53.79-41.83-76.09-41.83-76.09L325.82,535.97z"/>
	<path class="st5" d="M230.62,537.02c-24.33,13.99-23.02-108.84,20.27-139.74s82.98-30.01,99.92,6.83
		c16.94,36.84,9.87,115.6-24.99,131.85C325.82,535.97,290.41,502.64,230.62,537.02z"/>
	<path class="st9" d="M221.36,651.91c0,0-2.09-57.09,26.05-70.64c0,0,9.3,18.51,7.51,36S221.36,651.91,221.36,651.91z"/>
	<path class="st10" d="M221.36,651.91c0,0-2.09-57.09,26.05-70.64c0,0,9.3,18.51,7.51,36S221.36,651.91,221.36,651.91z"/>
	<g>
		<path class="st4" d="M252.76,403.75c-2.02,1.72-3.75,3.83-5.28,6.02c-1.53,2.2-2.87,4.54-4.08,6.92c-2.36,4.81-4.1,9.91-5.38,15.1
			c-1.33,5.18-2.15,10.5-2.58,15.8c-0.41,5.31-0.33,10.64,0.35,15.87c0.7,5.23,1.98,10.35,3.84,15.3c0.88,2.49,1.89,4.94,2.86,7.51
			c0.48,1.28,0.96,2.61,1.38,4.03c0.37,1.38,0.69,2.76,0.96,4.14c1.02,5.52,1.43,11.11,1.04,16.7c-0.2,2.79-0.66,5.58-1.43,8.29
			c-0.8,2.69-1.91,5.34-3.66,7.52l-0.43-0.26c1.05-2.49,1.59-5.09,1.85-7.71c0.28-2.62,0.28-5.25,0.15-7.88
			c-0.18-2.63-0.43-5.26-0.86-7.86c-0.39-2.61-0.9-5.2-1.55-7.73c-0.3-1.27-0.65-2.53-1.03-3.75c-0.39-1.18-0.82-2.4-1.3-3.65
			c-0.94-2.51-1.9-5.12-2.69-7.79c-1.6-5.33-2.66-10.88-3.12-16.43c-0.47-5.56-0.29-11.13,0.39-16.62c0.7-5.48,1.79-10.89,3.4-16.15
			c1.63-5.25,3.72-10.38,6.43-15.16c2.77-4.73,6-9.29,10.43-12.63L252.76,403.75z"/>
	</g>
	<path class="st5" d="M152.52,706.54c0,0-6.57,25.09-0.99,33.05c5.58,7.96,35.12,12.75,35.12,12.75s-1.2-20.85-11.56-32.11
		S152.52,706.54,152.52,706.54z"/>
	<path class="st5" d="M344.47,737.61c-8.34,26.71-4.01,49.09,12.96,58.84c16.97,9.75,48.01-28.88,45.13-33.57
		C399.67,758.18,344.47,737.61,344.47,737.61z"/>
	<path class="st8" d="M395.37,526.82c-6.87,64.42-55.42,203.73-51.57,221.96c3.85,18.23,10.91,23.8,22.81,22.81
		c11.9-0.99,122.48-77.06,142.81-122.33c20.33-45.27,58.62-112.54,34.02-149.32S403.8,447.8,395.37,526.82z"/>
	<path class="st4" d="M722.94,623l0-0.01C722.88,623.01,722.9,623.01,722.94,623z"/>
	<path class="st8" d="M230.62,537.02c9.82-3.36,13.42-22.61,22-26.61l-1.17,10.44c0,0,20.75-14.44,39.75-14.69c0,0-6,6-5.75,6.75
		s20.25-0.75,34.5,0.75l-8.75,7.19c0,0,13.11,1.46,23.81,8.89s3.94,10.67,3.94,10.67l-32,3L230.62,537.02z"/>
	<path class="st11" d="M805.96,571.81c-1.61,1.5-3.24,2.99-4.91,4.45c-0.16,0.14-0.32,0.27-0.48,0.41c-1.42,1.25-2.86,2.48-4.32,3.7
		c-0.03,0.03-0.06,0.05-0.09,0.07c-6.06-1.67-13.25-4.93-19.83-8.33c4.08-3.28,6.79-5.81,6.79-5.81s-7.73-4.63-17.19-10.01
		l10.43-4.87c-4.22-7.64-13.08-16.98-23.38-26.28c-36.64-0.22-68.18,9.09-82.79,22.51c-36.5,33.5-120,0-120,0s-82.5,91.5-129.5,99.5
		c-43.1,7.34-66.86,61.34-94.41,93.72c1.32,10.66,5.13,22.94,14.67,29.65c1.72,11.51,7.21,20.6,16.48,25.92
		c16.97,9.75,48.01-28.88,45.13-33.57c-0.69-1.13-4.41-3.17-9.65-5.63c9.38-6.13,20.45-13.88,32.01-22.58
		c1.4,20.38,6.27,41.85,19.52,58.91c16.75,21.58,52.21,37.11,90.42,41.94c3.8,28.08-67.41,106.14-67.41,106.14h67.22
		c0,0,37.71-71.39,46.81-105.85c4.97-0.6,9.87-1.42,14.67-2.47c14.05,1.41,27.94,1.49,41.01,0.21
		c-22.38,35.52-81.98,82.1-81.98,82.1s69.31,0,72.02,0c2.71,0,90.7-97.01,86.96-110l0,0c34.16-23.46,56.88-57.9,66.84-90.26
		c3.34-10.85,7.17-20.15,11.15-28.12c5.57-3.82,9.91-6.72,12.59-8.49c0.03-0.02,0.06-0.04,0.1-0.06c0.24-0.16,0.47-0.31,0.68-0.45
		c0.04-0.03,0.09-0.06,0.13-0.09c0.19-0.13,0.37-0.24,0.54-0.35c0.06-0.04,0.12-0.08,0.19-0.12c0.13-0.09,0.26-0.17,0.37-0.24
		c0.07-0.04,0.13-0.08,0.19-0.12c0.11-0.07,0.22-0.14,0.3-0.2c0.01-0.01,0.02-0.01,0.03-0.02c0.11-0.07,0.2-0.13,0.28-0.18
		c0.06-0.04,0.11-0.07,0.15-0.1c0.02-0.01,0.04-0.03,0.05-0.03c0.04-0.03,0.07-0.05,0.07-0.05l-7.12-4.43
		c12.17-18.63,23.3-25.71,23.3-25.71h-7.29c11.85-9.51,23.15-19.86,33.65-31.25c11.89-12.91,22.75-27.22,31.76-42.89
		c-15.12-13.68-32.07-23.96-49.69-31.38C824.99,552.13,816.03,562.38,805.96,571.81z"/>
</g>
<g id="Calque_13">
	<path class="st12" d="M70.69,948.55c35,0,62.47-110.98,153.73-93.94c91.27,17.04,130.78-140.35,243.02-93.65
		c112.24,46.7,126.56-227.34,292.4-201.82c165.84,25.52,140.84,196.35,100.84,234.43c-40,38.09-134,89.19-101,122.09
		c33,32.89,96-1.22,127,32.89H70.69z"/>
	<path class="st1" d="M771.69,793.57c-71,20.09-120-11.01-117-55.96s73.79-61.23,92.9-23.09c0,0-29.9-71.26-98.9-12.56
		s54,121.61,40,152.66s-145,19.83-177,39.44s-157.36,44.61-161.18,40.61c-3.82-4,40.13-37.66,70.18-40.61
		c50-4.89,109-50.39,162.75-59.59c-32.02-12.8-104.3,10.59-122.75,2.64c-3.8-1.64-62.37-20.68-122.86-40.23
		c-35.23,31.33-67.88,66.24-113.41,57.74c-91.27-17.04-118.73,93.94-153.73,93.94h816c-31-34.11-94,0-127-32.89
		c-33-32.89,61-84,101-122.09c21.62-20.58,38.85-79.94,23.95-134.18C882.69,712.66,842.69,773.48,771.69,793.57z"/>
	<path class="st12" d="M65.19,948.55c36.5-4.89,59.5-175.07,140.5-154.98c81,20.09,104.84,23.65,153.92-64.13
		s159.58-86.76,165.83,25.73c6.25,112.49-131.55,99.49-155.65,131.49s-127.85,28.78-148.47,61.89H65.19z"/>
	<path class="st1" d="M525.45,755.17c-1.22-21.92-6.41-39.59-14.31-53.21c11.52,31.52-6.47,88.82-33.77,105.75
		c-27.33,16.95-52.67,24.95-79.33,12.28c-26.67-12.67-18.67-75.39,34-59.03c0,0-45.49-27.64-72.41,23.7
		c-26.92,51.33,28.05,57.33-9.1,84.67c-37.15,27.33-98.49,16.67-141.15,39.33c-42.67,22.67-54.45,26.67-56.89,26.67
		c-2.44,0,34.32-37.33,62.27-46c27.95-8.67,82.62-35.11,89.28-52.22c0,0-52.67,29.66-98.67,41.6s-82.67,48.61-90.67,51.28
		s-10-10.67,3.33-32c13.33-21.33,36.67-64.67,56.67-66.67c0,0-40.7,2.39-66.21,51.77c-1.72,3.7-3.41,7.37-5.07,10.96
		c-0.54,1.3-1.11,2.51-1.7,3.67C89.14,924.77,78,946.83,65.19,948.55h156.13c20.63-33.11,124.37-29.89,148.47-61.89
		C393.9,854.66,531.69,867.66,525.45,755.17z"/>
	<path class="st12" d="M776.33,572.11c6.59,3.4,13.77,6.66,19.83,8.33c0.03-0.03,0.06-0.05,0.09-0.07c1.46-1.22,2.9-2.45,4.32-3.7
		c0.16-0.14,0.32-0.27,0.48-0.41c1.66-1.46,3.3-2.95,4.91-4.45c0.04-0.03,0.07-0.07,0.11-0.1c-9.04-3.75-18.94-6.93-29.76-9.42
		c4.12,2.41,6.81,4.02,6.81,4.02S780.41,568.83,776.33,572.11z"/>
	<path class="st13" d="M806.07,571.7c-0.04,0.03-0.07,0.07-0.11,0.1c-1.61,1.5-3.24,2.99-4.91,4.45c-0.16,0.14-0.32,0.27-0.48,0.41
		c-1.42,1.25-2.86,2.48-4.32,3.7c-0.03,0.03-0.06,0.05-0.09,0.07c-6.06-1.67-13.25-4.93-19.83-8.33c4.08-3.28,6.79-5.81,6.79-5.81
		s-2.69-1.61-6.81-4.02c-5.27-1.21-10.74-2.27-16.46-3.15c-132.4-20.37-168.23,150.18-234.4,196.03v0
		c-6.25-112.49-116.75-113.51-165.83-25.73c-8.31,14.86-15.89,27.1-23.16,37.09c1.34,1.48,2.82,2.83,4.5,4
		c1.72,11.51,7.21,20.6,16.48,25.92c16.97,9.75,48.01-28.88,45.13-33.57c-0.69-1.13-4.41-3.17-9.65-5.63
		c9.38-6.13,20.45-13.88,32.01-22.58c1.4,20.38,6.27,41.85,19.52,58.91c16.75,21.58,52.21,37.11,90.42,41.94
		c3.8,28.08-72.92,113.04-72.92,113.04h66.2h9.3h89c2.71,0,91.46-129.9,87.72-142.89l0,0c34.16-23.46,56.88-57.9,66.84-90.26
		c3.34-10.85,7.17-20.15,11.15-28.12c5.57-3.82,9.91-6.72,12.59-8.49c0.03-0.02,0.06-0.04,0.1-0.06c0.24-0.16,0.47-0.31,0.68-0.45
		c0.04-0.03,0.09-0.06,0.13-0.09c0.19-0.13,0.37-0.24,0.54-0.35c0.06-0.04,0.12-0.08,0.19-0.12c0.13-0.09,0.26-0.17,0.37-0.24
		c0.07-0.04,0.13-0.08,0.19-0.12c0.11-0.07,0.22-0.14,0.3-0.2c0.01-0.01,0.02-0.01,0.03-0.02c0.11-0.07,0.2-0.13,0.28-0.18
		c0.06-0.04,0.11-0.07,0.15-0.1c0.02-0.01,0.04-0.03,0.05-0.03c0.04-0.03,0.07-0.05,0.07-0.05l-7.12-4.43
		c12.17-18.63,23.3-25.71,23.3-25.71h-7.29c11.85-9.51,23.15-19.86,33.65-31.25c2.34-2.54,4.63-5.14,6.89-7.79
		C844.61,593.18,827.85,580.75,806.07,571.7z M543.9,933.81c10.54-24.36,30.94-72.85,37.58-98c4.97-0.6,9.87-1.42,14.67-2.47
		c14.05,1.41,27.94,1.49,41.01,0.21C620.78,859.56,569.95,909.12,543.9,933.81z"/>
</g>
<g id="Calque_5" class="st14">
	<g class="st15">
		<path class="st16" d="M474.27,948.55h474.27V474.27C948.55,736.21,736.21,948.55,474.27,948.55z"/>
		<path class="st16" d="M474.27,0H0v474.27C0,212.34,212.34,0,474.27,0z"/>
		<path class="st16" d="M0,474.27v474.27h474.27C212.34,948.55,0,736.21,0,474.27z"/>
		<path class="st16" d="M474.27,0c261.93,0,474.27,212.34,474.27,474.27V0H474.27z"/>
	</g>
</g>
</svg>
